<svg enable-background="new 0 0 64 64" viewBox="0 0 64 64" xmlns="http://www.w3.org/2000/svg"><path d="m26.9 19.7c2.6-2.2 5.9-3.4 9.6-3.4 3.8 0 7.2 1.4 9.9 3.7.4-1.3.6-2.7.6-4.2 0-8.3-6.7-15.1-15.1-15.1s-15.1 6.8-15.1 15.1v.4h.3c3.7 0 7.1 1.3 9.8 3.5z" fill="#df0411"/><path d="m30.7 6.3c7.4 0 13.7 4.6 16.2 11.2 0-.5.1-1 .1-1.5 0-8.3-6.7-15.1-15.1-15.1-7.2 0-13.3 5.1-14.7 11.9 3.1-4 8-6.5 13.5-6.5z" fill="#fff" opacity=".2"/><path d="m20.3 33.1c0-1.4.2-2.8.6-4.2.8-3 2.6-5.5 4.9-7.5-2.6-2.2-6-3.6-9.7-3.6-.1 0-.2 0-.3 0-8.2.3-14.8 6.9-14.8 15.1 0 8.4 6.7 15.1 15.1 15.1 3.6 0 7-1.3 9.6-3.4-3.3-2.8-5.4-6.9-5.4-11.5z" fill="#df0411"/><path d="m13.2 24h.3c3 0 5.9.9 8.2 2.4.9-1.9 2.3-3.6 3.9-4.9-2.6-2.2-6-3.6-9.7-3.6-.1 0-.2 0-.3 0-7.3.2-13.4 5.6-14.5 12.7 2.6-3.9 7.1-6.5 12.1-6.6z" fill="#fff" opacity=".1"/><path d="m46.9 21.7c-2.6-2.3-6.1-3.7-9.9-3.7-3.6 0-7 1.3-9.6 3.4-2.3 1.9-4 4.5-4.9 7.5-.4 1.3-.6 2.7-.6 4.2 0 4.6 2.1 8.7 5.3 11.5 2.6 2.2 6 3.6 9.7 3.6 8.3 0 15.1-6.7 15.1-15.1.1-4.5-1.9-8.6-5.1-11.4z" fill="#0e0d12"/><circle cx="47.9" cy="48.2" fill="#f9f8f4" r="15.1"/><path d="m58.6 37.5c-.1 11.8-9.6 21.2-21.3 21.3 2.7 2.7 6.5 4.4 10.6 4.4 8.3 0 15.1-6.7 15.1-15.1 0-4.1-1.7-7.8-4.4-10.6z" opacity=".1"/><path d="m26.4 43.8c.1-11.7 9.6-21.2 21.3-21.3-2.7-2.7-6.5-4.4-10.6-4.4-8.3 0-15.1 6.7-15.1 15.1 0 4.1 1.7 7.8 4.4 10.6z" fill="#fff" opacity=".1"/></svg>