<svg enable-background="new 0 0 64 64" viewBox="0 0 64 64" xmlns="http://www.w3.org/2000/svg"><path d="m21.1 38.4c-2.9-1.2-5.4-1.7-7.9-1.7-2.8 0-5.5.8-8.3 2.3-2.2 1.3-3.6 3.4-3.9 5.9s.5 4.9 2.3 6.7l.1.1c1.5 1.5 3.5 2.4 5.7 2.4h.8c-.2 2.3.5 4.7 2.3 6.4l.2.2c1.5 1.5 3.5 2.3 5.6 2.3 2.8 0 5.4-1.5 6.8-3.9 3-5.1 3.2-10.1.7-16.3z" fill="#ae111d"/><path d="m3.3 51.6c1.6 1.6 3.6 2.5 5.8 2.5h.8l13.4-13.4-2.1-2.2c-2.9-1.2-5.4-1.7-7.9-1.7-2.8 0-5.5.8-8.3 2.3-2.2 1.3-3.6 3.4-3.9 5.9-.4 2.4.5 4.9 2.2 6.6z" fill="#d81e35"/><path d="m24.6 41.9-17.9 18-2.6-2.6 17.9-18z" fill="#d81e35"/><path d="m23.3 40.6-17.9 18-1.3-1.3 17.9-18z" fill="#ae111d"/><path d="m25.9 44.1 5.5-4 3.1-2.9-7.8-7.9-2.9 3.1-4 5.5z" fill="#f9f9f9"/><path d="m30.6 33.3-3.9-3.9-2.9 3.1-4 5.5 3.1 3.1z" fill="#eceae7"/><path d="m31.4 40.1 8.2-7.8-8.2-8.2-7.7 8.3z" fill="#095d33"/><path d="m35.6 28.2-4.1-4.1-7.7 8.3 3.8 3.8z" fill="#073f22"/><path d="m37 34.8 13.8-13c2.3-2.2 3.8-4.9 4.5-8l.7-3.5 7-9.3-9.5 6.7-3.5.8c-3.1.6-5.9 2.2-8 4.5l-13 13.8z" fill="#f9f9f9"/><path d="m53.5 7.7-3.5.8c-3.1.6-5.9 2.2-8 4.5l-13 13.8 4 4 30-29.8z" fill="#eceae7"/></svg>