<svg enable-background="new 0 0 64 64" viewBox="0 0 64 64" xmlns="http://www.w3.org/2000/svg"><path d="m3.3 56.8 5.3-5.3 1.6-1.6 2.7-2.7 1.6-1.7 4-3.9 3.9 3.9-6.4 6.4-8.8 8.8z" fill="#555e60"/><path d="m3.1 50.7h21.5v2.8h-21.5z" fill="#434849" transform="matrix(.7071 -.7071 .7071 .7071 -32.7986 25.0548)"/><path d="m15.9 35.9 22.1-22.1 10.3-10.3 1.5-1.5c1.2-1.2 3.2-1.2 4.4 0l7.8 7.8c1.2 1.2 1.2 3.2 0 4.4l-34 34c-1.2 1.2-3.2 1.2-4.4 0l-7.8-7.8c-1.1-1.3-1.1-3.3.1-4.5z" fill="#fcda97"/><path d="m62.1 9.7-1.7-1.7c1.2 1.2 1.2 3.2 0 4.4l-9.7 9.6c-.9-.3-1.9-.5-2.9-.5-3.8.1-6.9 3.2-7.1 7 0 1 .1 2 .5 2.9l-14.8 15c-1.2 1.2-3.2 1.2-4.4 0l1.7 1.7c1.2 1.2 3.2 1.2 4.4 0l34-34c1.2-1.2 1.2-3.2 0-4.4z" opacity=".1"/><path d="m15.9 35.9 1-1 12.2 12.2-1 1c-1.2 1.2-3.2 1.2-4.4 0l-7.8-7.8c-1.2-1.2-1.2-3.2 0-4.4z" fill="#555e60"/><path d="m1.5 58.5 4 4c.7.7 1.8.7 2.4 0 .7-.7.7-1.8 0-2.4l-4-4c-.7-.7-1.8-.7-2.4 0-.7.6-.7 1.7 0 2.4z" fill="#555e60"/><path d="m6.1 60.7c-.7.7-1.8.7-2.4 0l1.8 1.8c.7.7 1.8.7 2.4 0 .7-.7.7-1.8 0-2.4l-1.8-1.8c.7.6.7 1.7 0 2.4z" fill="#374447"/><circle cx="44" cy="31.9" fill="#e22342" r="7.4"/><path d="m46.7 31.9c0 3.2-2.1 6-5 7 .7.2 1.5.4 2.3.4 4.1 0 7.4-3.3 7.4-7.4s-3.3-7.4-7.4-7.4c-.8 0-1.6.1-2.3.4 2.9 1 5 3.7 5 7z" fill="#c9183a"/></svg>