<svg enable-background="new 0 0 64 64" viewBox="0 0 64 64" xmlns="http://www.w3.org/2000/svg"><path d="m50.1 44.4 6.5-6.5c8.4-8.4 8.4-22.1 0-30.5-8.5-8.4-22.1-8.4-30.5 0l-6.5 6.5c-.7.7-1.3 1.4-1.9 2.2l30.2 30.2c.8-.6 1.5-1.3 2.2-1.9z" fill="#f44d4d"/><g fill="#fcca92"><path d="m19.6 44.4c7.7 7.7 19.9 8.4 28.3 1.9l-30.2-30.3c-6.5 8.5-5.8 20.6 1.9 28.4z"/><path d="m6.4 62.4-4.8-4.8c-.6-.7-.6-1.6 0-2.2l17.1-17.1c1.9-1.9 5.1-1.9 7 0s1.9 5.1 0 7l-17.1 17.1c-.6.6-1.6.6-2.2 0z"/><path d="m7.8 61-4.8-4.9c-.6-.6-.6-1.6 0-2.2l17.1-17.1c1.9-1.9 5.1-1.9 7 0s1.9 5.1 0 7l-17.1 17.2c-.6.6-1.6.6-2.2 0z"/></g><path d="m27.8 37.5-1.4-1.4c-1.6-1.6-4.1-1.6-5.6 0l-1.4 1.4c1.6-1.6 4.1-1.6 5.6 0l1.4 1.4c1.6 1.6 1.6 4.1 0 5.6l1.4-1.4c1.5-1.5 1.5-4 0-5.6z" opacity=".2"/><path d="m4.7 60.6 2 2c.5.5 1.3.5 1.7 0l18-18c1.6-1.6 1.6-4.1 0-5.6z" opacity=".1"/><circle cx="50.9" cy="49.6" fill="#f9f9f9" r="8.2"/><path d="m56.7 43.6c.1.5.1 1.1.1 1.6 0 5.6-4.5 10.1-10.1 10.1-.6 0-1.1 0-1.6-.1 1.5 1.6 3.6 2.5 5.9 2.5 4.6 0 8.2-3.7 8.2-8.2 0-2.3-1-4.4-2.5-5.9z" opacity=".1"/></svg>