<svg enable-background="new 0 0 64 64" viewBox="0 0 64 64" xmlns="http://www.w3.org/2000/svg" xmlns:xlink="http://www.w3.org/1999/xlink"><defs><ellipse id="a" cx="6" cy="58" rx="1" ry="5.1" transform="matrix(.7071 -.7071 .7071 .7071 -39.3012 21.2112)"/><clipPath id="b"><use xlink:href="#a"/></clipPath><clipPath id="c" clip-path="url(#b)"><use xlink:href="#d"/></clipPath><ellipse id="d" cx="58" cy="6" rx="1" ry="5.1" transform="matrix(.7071 -.7071 .7071 .7071 12.7915 42.7888)"/></defs><ellipse cx="32" cy="32" fill="#df0411" rx="37.8" ry="22.1" transform="matrix(.7071 -.7071 .7071 .7071 -13.2548 32)"/><g fill="#fff"><use xlink:href="#a"/><use xlink:href="#d"/><ellipse clip-path="url(#c)" cx="32" cy="32" rx="37.8" ry="22.1" transform="matrix(.7071 -.7071 .7071 .7071 -13.2548 32)"/><path d="m58.4 5c6.3 5.6 4.3 15.1 1.1 21.9-6 12.6-17.7 24.4-30 31.1-6 3.1-13 5.7-19.7 3.6-1.8-.7-3.5-1.8-4.8-3.2.7.6 1.5 1.2 2.4 1.7 6.1 3.3 13.4 1 19.2-1.8 12.9-6.5 25.6-19 32.1-31.9 3.2-6.6 5.5-15.6-.3-21.4z"/></g><path d="m5.3 58.7c8.6 8.6 27.6 3.7 42.4-11.1s19.7-33.7 11-42.3c6.1 6-47.4 59.5-53.4 53.4z" opacity=".21"/><path d="m5.3 58.7c-6.1-5.7-3.8-15.1-.6-21.7 6.4-13.1 19.1-25.7 32.3-32.2 6.6-3.2 16-5.6 21.8.4-1.3-1.1-2.7-2-4.3-2.5-5.8-1.8-11.8.4-17 3-10.1 5.3-18.9 13.3-25.8 22.2-5.9 7.7-14.5 22.1-6.4 30.8z" fill="#fff"/><path d="m-3.8 31.4h71.7v1.3h-71.7z" fill="#fff" transform="matrix(.7071 -.7071 .7071 .7071 -13.2548 32)"/><g opacity=".1"><path d="m38.5 29.5-3.2-3.2c-.3-.3-.3-.9 0-1.2s.9-.3 1.2 0l3.2 3.2c.3.3.3.9 0 1.2s-.9.3-1.2 0z"/><path d="m36.3 31.6-3.2-3.2c-.3-.3-.3-.9 0-1.2s.9-.3 1.2 0l3.2 3.2c.3.3.3.9 0 1.2-.3.4-.9.4-1.2 0z"/><path d="m34.1 33.8-3.1-3.1c-.3-.3-.3-.9 0-1.2s.9-.3 1.2 0l3.2 3.2c.3.3.3.9 0 1.2-.4.2-.9.2-1.3-.1z"/><path d="m32 36-3.2-3.2c-.3-.3-.3-.9 0-1.2s.9-.3 1.2 0l3.2 3.2c.3.3.3.9 0 1.2s-.9.3-1.2 0z"/><path d="m29.8 38.1-3.2-3.1c-.3-.3-.3-.9 0-1.2s.9-.3 1.2 0l3.2 3.2c.3.3.3.9 0 1.2s-.9.3-1.2-.1z"/><path d="m27.6 40.3-3.2-3.2c-.3-.3-.3-.9 0-1.2s.9-.3 1.2 0l3.2 3.2c.3.3.3.9 0 1.2-.3.4-.8.4-1.2 0z"/></g><g fill="#f2f2f2"><path d="m38.5 28.8-3.2-3.2c-.3-.3-.3-.9 0-1.2s.9-.3 1.2 0l3.2 3.2c.3.3.3.9 0 1.2-.3.4-.9.4-1.2 0z"/><path d="m36.3 31-3.2-3.2c-.3-.3-.3-.9 0-1.2s.9-.3 1.2 0l3.2 3.2c.3.3.3.9 0 1.2s-.9.3-1.2 0z"/><path d="m34.1 33.2-3.1-3.2c-.3-.3-.3-.9 0-1.2s.9-.3 1.2 0l3.2 3.2c.3.3.3.9 0 1.2-.4.3-.9.3-1.3 0z"/><path d="m32 35.4-3.2-3.2c-.3-.3-.3-.9 0-1.2s.9-.3 1.2 0l3.2 3.2c.3.3.3.9 0 1.2-.4.3-.9.3-1.2 0z"/><path d="m29.8 37.5-3.2-3.2c-.3-.3-.3-.9 0-1.2s.9-.3 1.2 0l3.2 3.2c.3.3.3.9 0 1.2-.3.4-.9.4-1.2 0z"/><path d="m27.6 39.7-3.2-3.2c-.3-.3-.3-.9 0-1.2s.9-.3 1.2 0l3.2 3.2c.3.3.3.9 0 1.2s-.8.3-1.2 0z"/></g></svg>