<svg enable-background="new 0 0 64 64" viewBox="0 0 64 64" xmlns="http://www.w3.org/2000/svg" xmlns:xlink="http://www.w3.org/1999/xlink"><clipPath id="a"><circle cx="32" cy="32" r="31"/></clipPath><circle cx="32" cy="32" fill="#ebf545" r="31"/><path clip-path="url(#a)" d="m58.8 37.8c-2-1.8-2.6-4.3-3.3-7.5-.9-3.9-1.9-8.7-6.4-13.2-8.8-8.8-23.1-8.8-31.9 0s-8.8 23.1 0 31.9c4.5 4.5 9.3 5.5 13.2 6.4 3.2.7 5.7 1.3 7.5 3.3 2 2.4 3 6.6 3 13.4h2.8c0-7.5-1.2-12.3-3.7-15.2-2.4-2.7-5.6-3.5-9-4.2-4-.9-8-1.7-11.9-5.6-7.7-7.7-7.7-20.2 0-27.9s20.2-7.7 27.9 0c3.9 3.9 4.8 7.9 5.6 11.8.8 3.4 1.5 6.6 4.2 9 2.9 2.5 7.7 3.7 15.2 3.7v-2.8c-6.6-.1-10.9-1.1-13.2-3.1z" fill="#fff"/><path d="m43.3 2.8c1.4 3.5 2.1 7.3 2.1 11.3 0 17.1-13.9 31-31 31-4 0-7.8-.8-11.3-2.1 4.5 11.5 15.8 19.7 28.9 19.7 17.1 0 31-13.9 31-31 0-13.1-8.2-24.4-19.7-28.9z" opacity=".05"/><path d="m49.1 5.8c3.2 4.9 5.1 10.8 5.1 17.1 0 17.1-13.9 31-31 31-6.3 0-12.2-1.9-17.1-5.1 5.5 8.4 15.1 13.9 25.9 13.9 17.1 0 31-13.9 31-31 0-10.8-5.5-20.3-13.9-25.9z" opacity=".05"/></svg>