<svg enable-background="new 0 0 64 64" viewBox="0 0 64 64" xmlns="http://www.w3.org/2000/svg"><path d="m1 27.4v9.2c0 3.4 13.9 6.1 31 6.1s31-2.7 31-6.1v-9.2z" fill="#1c1b1b"/><path d="m32 42.3c-17.1 0-31-2.7-31-6.1v.4c0 3.4 13.9 6.1 31 6.1s31-2.7 31-6.1v-.4c0 3.4-13.9 6.1-31 6.1z" fill="#383838"/><ellipse cx="32" cy="27.4" fill="#1e1e1e" rx="31" ry="6.1"/><path d="m32 32.9c-16.6 0-30.2-2.6-31-5.8v.3c0 3.4 13.9 6.1 31 6.1s31-2.7 31-6.1c0-.1 0-.2 0-.3-.8 3.2-14.4 5.8-31 5.8z" fill="#2d2d2d"/><path d="m32 26.6c5 0 9.9.2 13.7.7.4 0 .8.1 1.2.1-.4 0-.8.1-1.2.1-3.8.5-8.7.7-13.7.7s-9.9-.2-13.7-.7c-.4 0-.8-.1-1.2-.1.4 0 .8-.1 1.2-.1 3.8-.5 8.7-.7 13.7-.7m0-2.1c-12.1 0-21.8 1.3-21.8 2.9s9.8 2.9 21.8 2.9 21.8-1.3 21.8-2.9-9.7-2.9-21.8-2.9z" fill="#fff"/></svg>