<svg enable-background="new 0 0 64 64" viewBox="0 0 64 64" xmlns="http://www.w3.org/2000/svg"><path d="m45.3 10.8h-26.7c-3.6 0-6.5 2.9-6.5 6.5v14.5c0 3.6 2.9 6.5 6.5 6.5h-.3v10.3h27.7v-10.3h-.7c3.6 0 6.5-2.9 6.5-6.5v-14.5c.1-3.6-2.9-6.5-6.5-6.5z" fill="#d32f2f"/><path d="m42.1 27.6h-16.2c-5.4 0-9.8-4.4-9.8-9.8s4.4-9.8 9.8-9.8h16.2c5.4 0 9.8 4.4 9.8 9.8 0 5.5-4.4 9.8-9.8 9.8z" opacity=".1"/><path d="m30.2 47.8v-7.4c0-1 .8-1.7 1.7-1.7 1 0 1.7.8 1.7 1.7v7.4z" fill="#4d4d4d"/><path d="m34.4 48.5h-4.9v-8.1c0-1.3 1.1-2.4 2.4-2.4s2.4 1.1 2.4 2.4v8.1zm-3.5-1.4h2.1v-6.7c0-.6-.5-1-1-1-.6 0-1 .5-1 1v6.7z" fill="#ccc"/><path d="m21.5 9.4c-4.3 0-7.9 3.5-7.9 7.9v6.6c0 4.3 3.5 7.9 7.9 7.9 4.3 0 7.9-3.5 7.9-7.9v-6.6c-.1-4.4-3.6-7.9-7.9-7.9z" opacity=".1"/><path d="m19.8 9.4c-4.3 0-7.9 3.5-7.9 7.9v6.6c0 4.3 3.5 7.9 7.9 7.9 4.3 0 7.9-3.5 7.9-7.9v-6.6c0-4.4-3.6-7.9-7.9-7.9z" fill="#d32f2f"/><path d="m42.3 23.7h-13.8c-5.4 0-9.8-4.4-9.8-9.8s4.4-9.8 9.8-9.8h13.8c5.4 0 9.8 4.4 9.8 9.8-.1 5.4-4.4 9.8-9.8 9.8z" fill="#ce4949"/><path d="m40.6 63h-17.3c-4.4 0-7.9-3.5-7.9-7.9s3.5-7.9 7.9-7.9h17.3c4.4 0 7.9 3.5 7.9 7.9s-3.5 7.9-7.9 7.9z" fill="#0071bc"/><path d="m23.6 47.2h4.1v15.8h-4.1z" fill="#333"/><path d="m27.7 50.9h20.8v8.4h-20.8z" fill="#f2f2f2"/><path d="m42.3 20.5h-13.8c-5.4 0-9.8-4.4-9.8-9.8s4.4-9.8 9.8-9.8h13.8c5.4 0 9.8 4.4 9.8 9.8-.1 5.4-4.4 9.8-9.8 9.8z" fill="#ef5350"/><g fill="#fff"><path d="m35.2 41.4h-6.3c-.3 0-.6-.3-.6-.6s.3-.6.6-.6h6.3c.3 0 .6.3.6.6s-.3.6-.6.6z"/><path d="m35.2 43.1h-6.3c-.3 0-.6-.3-.6-.6s.3-.6.6-.6h6.3c.3 0 .6.3.6.6s-.3.6-.6.6z"/><path d="m35.2 44.8h-6.3c-.3 0-.6-.3-.6-.6s.3-.6.6-.6h6.3c.3 0 .6.3.6.6s-.3.6-.6.6z"/><path d="m35.2 46.5h-6.3c-.3 0-.6-.3-.6-.6s.3-.6.6-.6h6.3c.3 0 .6.3.6.6s-.3.6-.6.6z"/></g></svg>