<svg enable-background="new 0 0 64 64" viewBox="0 0 64 64" xmlns="http://www.w3.org/2000/svg" xmlns:xlink="http://www.w3.org/1999/xlink"><defs><clipPath id="a"><circle cx="32" cy="32" r="30.5"/></clipPath><clipPath id="b"><use xlink:href="#d"/></clipPath><clipPath id="c"><use xlink:href="#e"/></clipPath><path id="d" d="m42.9 3.6c1.4 3.4 2.1 7.1 2.1 11.1 0 16.8-13.7 30.5-30.6 30.5-3.9 0-7.7-.7-11.1-2.1 4.5 11.4 15.5 19.4 28.5 19.4 16.9 0 30.6-13.7 30.6-30.5 0-12.9-8.1-24-19.5-28.4z" opacity=".05"/><path id="e" d="m48.7 6.5c3.2 4.8 5.1 10.6 5.1 16.8 0 16.8-13.7 30.5-30.7 30.5-6.2 0-12-1.9-16.9-5 5.5 8.3 14.9 13.7 25.6 13.7 16.9 0 30.7-13.6 30.7-30.5 0-10.6-5.5-20-13.8-25.5z" opacity=".05"/></defs><circle cx="32" cy="32" fill="#fff" r="30.5"/><path d="m32 1.5c16.8 0 30.5 13.6 30.5 30.5s-13.7 30.5-30.5 30.5-30.5-13.7-30.5-30.5 13.7-30.5 30.5-30.5m0-.5c-4.2 0-8.2.8-12.1 2.4-3.7 1.6-7 3.8-9.9 6.6-2.8 2.8-5.1 6.2-6.6 9.9-1.6 3.9-2.4 7.9-2.4 12.1s.8 8.2 2.4 12.1c1.6 3.7 3.8 7 6.6 9.9 2.8 2.8 6.2 5.1 9.9 6.6 3.9 1.6 7.9 2.4 12.1 2.4s8.2-.8 12.1-2.4c3.7-1.6 7-3.8 9.9-6.6 2.8-2.8 5.1-6.2 6.6-9.9 1.6-3.9 2.4-7.9 2.4-12.1s-.8-8.2-2.4-12.1c-1.6-3.7-3.8-7-6.6-9.9-2.8-2.8-6.2-5.1-9.9-6.6-3.9-1.6-7.9-2.4-12.1-2.4z" fill="#f2f2f2"/><g clip-path="url(#a)" fill="#ccc"><ellipse cx="15.4" cy="6.7" rx="4.6" ry="1.4" transform="matrix(.8173 -.5762 .5762 .8173 -1.0702 10.1011)"/><ellipse cx="35.4" cy="61.8" rx="4.4" ry="1.7" transform="matrix(.9933 -.1156 .1156 .9933 -6.9129 4.5087)"/></g><ellipse cx="20" cy="47.7" fill="#f2f2f2" rx="3.6" ry="5.8" transform="matrix(.6783 -.7348 .7348 .6783 -28.5697 30.0568)"/><ellipse cx="20" cy="46.4" fill="#ccc" rx="3.6" ry="5.8" stroke="#f2f2f2" stroke-miterlimit="10" transform="matrix(.6783 -.7348 .7348 .6783 -27.6684 29.6621)"/><ellipse cx="4.5" cy="36.3" fill="#f2f2f2" rx="1.4" ry="4.5" transform="matrix(.9539 -.3002 .3002 .9539 -10.6806 3.0321)"/><ellipse cx="5.1" cy="36.1" fill="#ccc" rx="1.4" ry="4.5" stroke="#f2f2f2" stroke-miterlimit="10" transform="matrix(.9539 -.3002 .3002 .9539 -10.5977 3.2006)"/><ellipse cx="43.4" cy="44.8" fill="#f2f2f2" rx="4.6" ry="4" transform="matrix(.7964 -.6048 .6048 .7964 -18.2463 35.3479)"/><ellipse cx="43.4" cy="44.1" fill="#ccc" rx="4.6" ry="4" stroke="#f2f2f2" stroke-miterlimit="10" transform="matrix(.7964 -.6048 .6048 .7964 -17.8098 35.2009)"/><ellipse cx="58" cy="29.9" fill="#f2f2f2" rx="2.3" ry="4.6"/><ellipse cx="57.3" cy="29.9" fill="#ccc" rx="2.3" ry="4.6" stroke="#f2f2f2" stroke-miterlimit="10"/><ellipse cx="27.5" cy="11.4" fill="#f2f2f2" rx="4.6" ry="3.7" transform="matrix(.9972 -.07473455 .07473455 .9972 -.7721 2.084)"/><ellipse cx="27.5" cy="12.2" fill="#ccc" rx="4.6" ry="3.7" stroke="#f2f2f2" stroke-miterlimit="10" transform="matrix(.9972 -.07473455 .07473455 .9972 -.835 2.0911)"/><ellipse cx="40.6" cy="4.7" fill="#f2f2f2" rx="1.4" ry="4.6" transform="matrix(.3297 -.9441 .9441 .3297 22.7288 41.4563)"/><ellipse cx="39.7" cy="5.9" fill="#ccc" rx="1.4" ry="4.6" transform="matrix(.3297 -.9441 .9441 .3297 21.0348 41.4597)"/><circle cx="42.8" cy="23.6" fill="#f2f2f2" r="4.4"/><ellipse cx="15.4" cy="26.9" fill="#f2f2f2" rx="4.4" ry="3.5" transform="matrix(.15 -.9887 .9887 .15 -13.5582 38.1263)"/><ellipse cx="16.4" cy="26.9" fill="#ccc" rx="4.4" ry="3.5" stroke="#f2f2f2" stroke-miterlimit="10" transform="matrix(.15 -.9887 .9887 .15 -12.6909 39.135)"/><circle cx="42.2" cy="23.6" fill="#ccc" r="4.4" stroke="#f2f2f2" stroke-miterlimit="10"/><g opacity=".05"><use xlink:href="#d"/><g clip-path="url(#b)"><ellipse cx="32" cy="32.2" rx="30.4" ry="30.6"/></g></g><g opacity=".05"><use xlink:href="#e"/><g clip-path="url(#c)"><ellipse cx="32" cy="31.9" rx="30.4" ry="30.6"/></g></g></svg>