<svg enable-background="new 0 0 64 64" viewBox="0 0 64 64" xmlns="http://www.w3.org/2000/svg"><circle cx="32" cy="32" fill="#ffc200" r="30.5"/><path d="m32 63c-17.1 0-31-13.9-31-31s13.9-31 31-31 31 13.9 31 31-13.9 31-31 31zm0-61c-16.5 0-30 13.5-30 30s13.4 30 30 30 30-13.4 30-30-13.5-30-30-30z"/><path d="m25.2 55.2-8.6 3.1c4.5 2.6 9.8 4.2 15.4 4.2 5.2 0 10-1.3 14.3-3.6l-7.1-3.8h-14z" fill="#3350b9"/><path d="m32 63c-5.5 0-10.9-1.5-15.7-4.2l-1-.6 9.8-3.5h14.2l8.1 4.3-.9.5c-4.4 2.3-9.4 3.5-14.5 3.5zm-14.2-4.6c4.4 2.3 9.2 3.6 14.2 3.6 4.6 0 9.1-1 13.2-3l-6.2-3.3h-13.7z"/><path d="m32 1.9c-5.7 0-11 1.5-15.5 4.2l8.8 3.2h13.3l7.5-4c-4.2-2.1-9-3.4-14.1-3.4z" fill="#3350b9"/><path d="m38.8 9.5h-13.6-.1l-8.8-3.3.4-.9 8.7 3.2h13.1l7.4-4 .5 1z"/><path d="m53.5 25.7-10.7-6.2-4.6-10.3.9-.4 4.5 9.9 9.9 5.8 6.8-3.7.5.9z"/><path d="m39.3 55.2h-13.9l-4.7-10.2 11.4-6.5 11.4 6.5z" fill="#ffc200"/><path d="m39.7 55.7h-14.7l-5-10.9 12.1-6.8 12 6.8zm-14-1h13.3l3.8-9.4-10.7-6.1-10.8 6.1z"/><path d="m53.5 39.1-10.2 5.9-11.3-6.5-11.4 6.5-10.1-6.2v-14l10.3-5.9 11.3 6.6 11.1-6.4 10.3 6z" fill="#3350b9"/><path d="m20.6 45.6-10.6-6.5v-14.6l10.8-6.2 11.3 6.6 11.1-6.4 10.8 6.3v14l6.7 3.8-.5.9-6.7-3.8-10.2 5.9-11.3-6.5zm11.4-7.7 11.3 6.4 9.6-5.6v-13.3l-9.7-5.7-11.1 6.4-11.3-6.6-9.8 5.6v13.3l9.5 5.9z"/><path d="m46 59.4-7-3.7h-13.7l-8.5 3.1-.4-1 8.7-3.1h14.2l7.2 3.8z"/><path d="m3 40.4h8.1v1h-8.1z" transform="matrix(.8557 -.5175 .5175 .8557 -20.1349 9.5423)"/><path d="m6.5 19.1h1v7.8h-1z" transform="matrix(.456 -.89 .89 .456 -16.6765 18.8006)"/><path d="m17.6 13.4h10.9v1h-10.9z" transform="matrix(.4152 -.9097 .9097 .4152 .7999 29.1297)"/><path d="m25.5 31.5h13.1v1h-13.1z" transform="matrix(.00651028 -1 1 .00651028 -.1619 63.8316)"/><path d="m35.7 49.6h11v1h-11z" transform="matrix(.3769 -.9263 .9263 .3769 -20.6901 69.4059)"/><path d="m22.4 44.5h1v11.2h-1z" transform="matrix(.9093 -.4161 .4161 .9093 -18.7631 14.0703)"/><path d="m43.4 3.6c1.3 3.4 2.1 7.2 2.1 11.1 0 16.8-13.6 30.5-30.5 30.5-3.9 0-7.6-.7-11.1-2.1 4.4 11.4 15.5 19.4 28.4 19.4 16.8 0 30.5-13.6 30.5-30.5 0-12.9-8.1-24-19.4-28.4z" opacity=".1"/><path d="m49.1 6.6c3.2 4.8 5 10.6 5 16.8 0 16.8-13.6 30.5-30.5 30.5-6.2 0-12-1.9-16.8-5 5.5 8.3 14.8 13.7 25.4 13.7 16.8 0 30.5-13.6 30.5-30.5.1-10.7-5.4-20.1-13.6-25.5z" opacity=".1"/></svg>