<svg enable-background="new 0 0 64 64" viewBox="0 0 64 64" xmlns="http://www.w3.org/2000/svg" xmlns:xlink="http://www.w3.org/1999/xlink"><clipPath id="a"><circle cx="32" cy="32" r="31"/></clipPath><circle cx="32" cy="32" fill="#f9f7ed" r="31"/><g clip-path="url(#a)"><path d="m31.9 76.6h-1.1c.5-12.5 5.5-24.1 14.1-32.7s20.2-13.5 32.8-14v1.1c-12.2.4-23.6 5.3-32.1 13.7-8.4 8.3-13.3 19.6-13.7 31.9z" opacity=".1"/><g fill="#c1272d"><path d="m77.5 32.8c-.2 0-.4-.1-.5-.3-.8-1.4-.8-2.8 0-4.1.1-.3.5-.3.7-.2.3.1.3.5.2.7-.6 1-.6 2 .1 3.1.1.3.1.6-.2.7-.1 0-.2.1-.3.1z"/><path d="m75.8 32.8c-.2 0-.4-.1-.5-.3-.8-1.4-.9-2.8-.2-4.1.1-.3.5-.4.7-.2.3.1.4.5.2.7-.5 1-.5 2 .2 3.1.2.2.1.6-.2.7 0 .1-.1.1-.2.1z"/><path d="m74.1 32.9c-.2 0-.3-.1-.4-.2-.9-1.3-1-2.7-.4-4.1.1-.3.4-.4.7-.3s.4.4.3.7c-.5 1-.4 2.1.3 3.1.2.2.1.6-.2.7-.1.1-.2.1-.3.1z"/><path d="m72.4 33.1c-.2 0-.3-.1-.4-.2-.9-1.3-1.1-2.7-.5-4.1.1-.3.4-.4.7-.3s.4.4.3.7c-.4 1.1-.3 2.1.4 3.1.2.2.1.6-.1.7s-.3.1-.4.1z"/><path d="m70.7 33.4c-.2 0-.3-.1-.4-.2-1-1.3-1.2-2.7-.7-4.1.1-.3.4-.4.7-.3s.4.4.3.7c-.4 1.1-.2 2.1.5 3.1.2.2.1.6-.1.7 0 0-.2.1-.3.1z"/><path d="m69.1 33.7c-.2 0-.3-.1-.4-.2-1-1.2-1.3-2.6-.8-4 .1-.3.4-.4.7-.3s.4.4.3.7c-.4 1.1-.1 2.1.6 3.1.2.2.2.6-.1.7-.1-.1-.2 0-.3 0z"/><path d="m67.5 34c-.1 0-.3-.1-.4-.2-1.1-1.2-1.4-2.6-1-4 .1-.3.4-.4.7-.4.3.1.4.4.4.7-.3 1.1-.1 2.1.7 3 .2.2.2.6 0 .7-.2.2-.3.2-.4.2z"/><path d="m65.9 34.4c-.1 0-.3-.1-.4-.2-1.1-1.2-1.5-2.5-1.1-4 .1-.3.4-.5.6-.4.3.1.5.4.4.6-.3 1.1 0 2.1.9 3 .2.2.2.5 0 .7-.2.3-.3.3-.4.3z"/><path d="m64.3 34.9c-.1 0-.3-.1-.4-.2-1.1-1.1-1.6-2.4-1.3-3.9.1-.3.3-.5.6-.4s.5.3.4.6c-.2 1.1.1 2.1 1 3 .2.2.2.5 0 .7 0 .2-.2.2-.3.2z"/><path d="m62.7 35.5c-.1 0-.3 0-.4-.1-1.2-1.1-1.6-2.4-1.4-3.9 0-.3.3-.5.6-.4.3 0 .5.3.4.6-.2 1.1.2 2.1 1.1 2.9.2.2.2.5 0 .7 0 .1-.1.2-.3.2z"/><path d="m61.2 36c-.1 0-.2 0-.3-.1-1.2-1-1.7-2.3-1.5-3.8 0-.3.3-.5.6-.5s.5.3.5.6c-.1 1.1.2 2.1 1.2 2.9.2.2.2.5.1.7-.3.2-.4.2-.6.2z"/><path d="m59.7 36.7c-.1 0-.2 0-.3-.1-1.2-1-1.8-2.3-1.7-3.8 0-.3.3-.5.6-.5s.5.3.5.6c-.1 1.1.3 2.1 1.2 2.8.2.2.3.5.1.7-.1.2-.2.3-.4.3z"/><path d="m58.2 37.4c-.1 0-.2 0-.3-.1-1.3-1-1.9-2.2-1.8-3.7 0-.3.3-.5.6-.5s.5.3.5.6c-.1 1.1.4 2.1 1.4 2.8.2.2.3.5.1.7-.1.1-.3.2-.5.2z"/><path d="m56.8 38.1c-.1 0-.2 0-.3-.1-1.3-.9-2-2.1-1.9-3.6 0-.3.2-.5.5-.5s.5.2.5.5c0 1.2.5 2.1 1.5 2.8.2.2.3.5.1.7-.1.1-.2.2-.4.2z"/><path d="m55.4 38.9c-.1 0-.2 0-.3-.1-1.3-.9-2-2.1-2.1-3.6 0-.3.2-.5.5-.5s.5.2.5.5c0 1.1.6 2 1.6 2.7.2.2.3.5.2.7s-.2.3-.4.3z"/><path d="m54 39.8c-.1 0-.2 0-.3-.1-1.4-.8-2.1-2-2.2-3.5 0-.3.2-.5.5-.6.3 0 .5.2.6.5.1 1.1.6 2 1.7 2.6.3.1.3.5.2.7-.1.3-.3.4-.5.4z"/><path d="m52.7 40.7c-.1 0-.2 0-.3-.1-1.4-.8-2.2-1.9-2.3-3.4 0-.3.2-.5.5-.6.3 0 .5.2.6.5.1 1.1.7 2 1.8 2.6.3.1.3.5.2.7-.2.2-.3.3-.5.3z"/><path d="m51.4 41.6c-.1 0-.2 0-.2-.1-1.4-.7-2.2-1.8-2.4-3.3 0-.3.2-.6.5-.6s.6.2.6.5c.2 1.1.8 2 1.9 2.5.3.1.4.4.2.7-.3.2-.5.3-.6.3z"/><path d="m50.1 42.6c-.1 0-.1 0-.2 0-1.4-.7-2.3-1.7-2.6-3.2-.1-.3.1-.6.4-.6s.6.1.6.4c.2 1.1.8 1.9 2 2.4.3.1.4.4.3.7-.1.2-.3.3-.5.3z"/><path d="m48.8 43.6c-.1 0-.1 0-.2 0-1.5-.6-2.4-1.7-2.7-3.1-.1-.3.1-.6.4-.6.3-.1.6.1.6.4.2 1.1.9 1.9 2 2.4.3.1.4.4.3.7 0 .1-.2.2-.4.2z"/><path d="m47.6 44.7c-.1 0-.1 0-.2 0-1.5-.6-2.4-1.6-2.8-3-.1-.3.1-.6.4-.6.3-.1.6.1.6.4.3 1.1 1 1.9 2.1 2.3.3.1.4.4.3.7.1 0-.1.2-.4.2z"/><path d="m46.5 45.8c-.1 0-.1 0-.2 0-1.5-.5-2.5-1.5-2.9-2.9-.1-.3.1-.6.4-.7s.6.1.7.4c.3 1.1 1 1.8 2.2 2.2.3.1.4.4.3.7-.1.1-.3.3-.5.3z"/><path d="m45.4 46.9s-.1 0-.2 0c-1.5-.4-2.5-1.4-3-2.8-.1-.3.1-.6.3-.7.3-.1.6.1.7.3.4 1.1 1.1 1.8 2.3 2.1.3.1.4.4.4.7-.1.3-.3.4-.5.4z"/><path d="m44.3 48.1h-.1c-1.5-.4-2.6-1.3-3.1-2.7-.1-.3 0-.6.3-.7s.6 0 .7.3c.4 1.1 1.2 1.8 2.4 2.1.3.1.5.4.4.6-.2.3-.4.4-.6.4z"/><path d="m43.2 49.3h-.1c-1.5-.3-2.6-1.2-3.2-2.6-.1-.3 0-.6.3-.7s.6 0 .7.3c.4 1.1 1.2 1.7 2.4 2 .3.1.5.3.4.6 0 .3-.2.4-.5.4z"/><path d="m42.2 50.6c-1.7-.3-2.8-1.1-3.4-2.5-.1-.3 0-.6.3-.7s.6 0 .7.3c.5 1 1.3 1.7 2.5 1.9.3.1.5.3.4.6 0 .2-.2.4-.5.4z"/><path d="m41.3 51.9c-1.6-.2-2.8-1-3.4-2.4-.1-.3 0-.6.2-.7.3-.1.6 0 .7.2.5 1 1.3 1.6 2.6 1.8.3 0 .5.3.4.6 0 .3-.2.5-.5.5z"/><path d="m40.4 53.2c-1.6-.2-2.8-.9-3.5-2.3-.1-.3 0-.6.2-.7.3-.1.6 0 .7.2.5 1 1.4 1.6 2.6 1.7.3 0 .5.3.5.6s-.2.5-.5.5z"/><path d="m39.5 54.6c-1.6-.1-2.8-.8-3.6-2.1-.1-.3-.1-.6.2-.7s.6-.1.7.2c.6 1 1.5 1.5 2.7 1.6.3 0 .5.3.5.6 0 .2-.2.4-.5.4z"/><path d="m38.7 56c-1.6-.1-2.8-.7-3.6-2-.2-.2-.1-.6.2-.7.2-.2.6-.1.7.2.6 1 1.5 1.5 2.7 1.5.3 0 .5.3.5.5 0 .3-.2.5-.5.5z"/><path d="m38 57.4c-1.6 0-2.8-.6-3.7-1.9-.2-.2-.1-.6.1-.7.2-.2.6-.1.7.1.6.9 1.6 1.4 2.8 1.4.3 0 .5.2.5.5.1.4-.1.6-.4.6z"/><path d="m37.1 58.9c-1.5 0-2.7-.6-3.5-1.7-.2-.2-.1-.6.1-.7.2-.2.6-.1.7.1.7.9 1.6 1.4 2.8 1.3.3 0 .5.2.5.5s-.2.5-.5.5z"/><path d="m36.2 60.4c-1.4 0-2.5-.5-3.4-1.6-.2-.2-.1-.6.1-.7.2-.2.6-.1.7.1.7.9 1.7 1.3 2.9 1.2.3 0 .5.2.6.5 0 .3-.2.5-.5.6-.1-.1-.2-.1-.4-.1z"/><path d="m35.4 62c-1.3 0-2.4-.5-3.2-1.5-.2-.2-.2-.6.1-.7.2-.2.6-.2.7.1.7.9 1.7 1.2 2.9 1.1.3 0 .6.2.6.5s-.2.6-.5.6c-.2-.2-.4-.1-.6-.1z"/><path d="m34.7 63.5c-1.2 0-2.3-.5-3.1-1.4-.2-.2-.2-.5 0-.7s.5-.2.7 0c.8.9 1.7 1.2 3 1 .3 0 .6.2.6.4 0 .3-.2.6-.4.6-.2.1-.5.1-.8.1z"/><path d="m34.1 65.1c-1.1 0-2.1-.4-3-1.3-.2-.2-.2-.5 0-.7s.5-.2.7 0c.8.8 1.8 1.1 3 .9.3-.1.6.1.6.4.1.3-.1.6-.4.6-.3.1-.6.1-.9.1z"/><path d="m33.5 66.8c-1.1 0-2-.4-2.8-1.2-.2-.2-.2-.5 0-.7s.5-.2.7 0c.8.8 1.8 1 3 .8.3-.1.6.1.6.4.1.3-.1.6-.4.6-.4 0-.7.1-1.1.1z"/><path d="m33 68.4c-1 0-1.9-.4-2.7-1.1-.2-.2-.2-.5 0-.7s.5-.2.7 0c.9.8 1.9 1 3.1.7.3-.1.6.1.6.4.1.3-.1.6-.4.6-.5.1-.9.1-1.3.1z"/><path d="m32.5 70.1c-.9 0-1.8-.3-2.6-1-.2-.2-.3-.5-.1-.7s.5-.3.7-.1c.9.7 1.9.9 3.1.5.3-.1.6.1.7.3.1.3-.1.6-.3.7-.5.2-1 .3-1.5.3z"/><path d="m32.1 71.8c-.9 0-1.7-.3-2.5-.9-.2-.2-.3-.5-.1-.7s.5-.3.7-.1c.9.7 1.9.8 3.1.4.3-.1.6 0 .7.3s0 .6-.3.7c-.5.2-1.1.3-1.6.3z"/><path d="m31.8 73.6c-.8 0-1.6-.3-2.4-.8-.2-.2-.3-.5-.1-.7s.5-.3.7-.1c.9.7 2 .8 3.1.3.3-.1.6 0 .7.3s0 .6-.3.7c-.5.1-1.1.3-1.7.3z"/><path d="m31.6 75.3c-.8 0-1.5-.2-2.2-.7-.2-.2-.3-.5-.1-.7s.5-.3.7-.1c1 .6 2 .7 3.1.2.3-.1.6 0 .7.3s0 .6-.3.7c-.7.2-1.3.3-1.9.3z"/><path d="m31.4 77.1c-.7 0-1.4-.2-2.1-.6-.2-.2-.3-.5-.2-.7.2-.2.5-.3.7-.2 1 .6 2 .6 3.1.1.3-.1.6 0 .7.2.1.3 0 .6-.2.7-.7.3-1.4.5-2 .5z"/></g><path d="m-13.5 34.1v-1.1c12.2-.5 23.6-5.4 32-13.8s13.2-19.8 13.7-32.1h1.1c-.4 12.5-5.4 24.1-14 32.8s-20.2 13.7-32.8 14.2z" opacity=".1"/><g fill="#c1272d"><path d="m32.7-11.5c-.7 0-1.4-.2-2.1-.6-.3-.1-.3-.5-.2-.7.1-.3.5-.3.7-.2 1.1.6 2.1.6 3.1.1.3-.1.6-.1.7.2s.1.6-.2.7c-.6.3-1.3.5-2 .5z"/><path d="m32.8-9.7c-.8 0-1.5-.2-2.3-.7-.2-.2-.3-.5-.2-.7.2-.2.5-.3.7-.2 1.1.6 2.1.7 3.1.2.3-.1.6 0 .7.2.1.3 0 .6-.2.7-.6.3-1.2.5-1.8.5z"/><path d="m32.8-8c-.8 0-1.6-.3-2.4-.8-.2-.2-.3-.5-.2-.7.2-.2.5-.3.7-.2 1 .7 2.1.8 3.1.3.3-.1.6 0 .7.3s0 .6-.3.7c-.5.3-1 .4-1.6.4z"/><path d="m32.7-6.2c-.8 0-1.7-.3-2.5-.9-.2-.2-.3-.5-.1-.7s.5-.3.7-.1c1 .7 2 .8 3.1.4.3-.1.6 0 .7.3s0 .6-.3.7c-.5.2-1.1.3-1.6.3z"/><path d="m32.5-4.5c-.9 0-1.8-.3-2.6-.9-.2-.2-.3-.5-.1-.7s.5-.3.7-.1c1 .7 2 .9 3.1.5.3-.1.6 0 .7.3s0 .6-.3.7c-.5.1-1 .2-1.5.2z"/><path d="m32.3-2.7c-1 0-1.9-.3-2.7-1-.2-.2-.3-.5-.1-.7s.5-.3.7-.1c1 .8 2 1 3.1.6.3-.1.6 0 .7.3s-.1.6-.3.7c-.5.1-.9.2-1.4.2z"/><path d="m32.1-1c-1 0-2-.4-2.8-1.1-.2-.2-.2-.5 0-.7s.5-.2.7 0c.9.8 1.9 1.1 3 .7.3-.1.6.1.7.4s-.1.6-.4.7c-.4-.1-.8 0-1.2 0z"/><path d="m31.7.7c-1.1 0-2-.4-2.9-1.2-.2-.2-.2-.5 0-.7s.5-.2.7 0c.9.8 1.9 1.1 3 .9.3-.1.6.1.6.4.1.3-.1.6-.4.6-.3-.1-.6 0-1 0z"/><path d="m31.4 2.3c-1.1 0-2.1-.5-3-1.4-.2-.2-.2-.5 0-.7.2-.2.5-.2.7 0 .9.9 1.8 1.2 3 1 .3-.1.6.1.6.4.1.3-.1.6-.4.6-.4.1-.7.1-.9.1z"/><path d="m30.9 4c-1.2 0-2.2-.5-3.1-1.5-.2-.2-.2-.5 0-.7s.5-.2.7 0c.8.9 1.8 1.3 2.9 1.1.3 0 .6.2.6.4s-.2.6-.4.6c-.2.1-.4.1-.7.1z"/><path d="m30.4 5.6c-1.3 0-2.3-.5-3.3-1.6-.1-.2-.1-.5.1-.7s.6-.2.7.1c.8.9 1.8 1.3 2.9 1.2.3 0 .6.2.6.5s-.1.5-.4.5c-.2 0-.4 0-.6 0z"/><path d="m29.9 7.2c-1.3 0-2.5-.6-3.4-1.7-.2-.2-.1-.6.1-.7.2-.2.6-.1.7.1.8 1 1.7 1.4 2.9 1.3.3 0 .5.2.6.5 0 .3-.2.5-.5.6-.2-.1-.3-.1-.4-.1z"/><path d="m29.3 8.8c-1.4 0-2.6-.6-3.5-1.8-.2-.2-.1-.6.1-.7.2-.2.6-.1.7.1.7 1 1.7 1.4 2.8 1.4.4-.1.6.2.6.5s-.2.5-.5.6c-.1-.1-.1-.1-.2-.1z"/><path d="m28.7 10.4c-1.5 0-2.7-.7-3.6-1.9-.2-.2-.1-.6.1-.7.2-.2.6-.1.7.1.7 1 1.6 1.5 2.8 1.5.3 0 .5.2.5.5 0 .2-.2.5-.5.5z"/><path d="m27.8 11.9c-1.5 0-2.7-.7-3.6-2.1-.2-.2-.1-.6.2-.7.3-.2.6-.1.7.1.7 1 1.5 1.6 2.7 1.6.3 0 .5.3.5.5 0 .4-.2.6-.5.6z"/><path d="m26.9 13.4c-1.5-.1-2.7-.8-3.5-2.2-.1-.3-.1-.6.2-.7s.6-.1.7.2c.6 1.1 1.5 1.6 2.6 1.7.3 0 .5.3.5.6 0 .2-.2.4-.5.4z"/><path d="m26 14.8c-.1 0-.1 0 0 0-1.5-.2-2.7-.9-3.5-2.3-.1-.3 0-.6.2-.7.3-.1.6 0 .7.2.6 1.1 1.4 1.7 2.6 1.8.3 0 .5.3.5.6 0 .2-.3.4-.5.4z"/><path d="m24.9 16.2c-1.6-.2-2.7-1-3.4-2.4-.1-.3 0-.6.2-.7.3-.1.6 0 .7.2.6 1.1 1.4 1.7 2.5 1.9.3 0 .5.3.5.6s-.2.4-.5.4z"/><path d="m23.9 17.6c-1.6-.3-2.7-1.1-3.3-2.6-.1-.3 0-.6.3-.7s.6 0 .7.3c.5 1.1 1.3 1.8 2.4 2 .3.1.5.3.4.6 0 .2-.3.4-.5.4z"/><path d="m22.8 19h-.1c-1.5-.3-2.5-1.2-3.1-2.7-.1-.3 0-.6.3-.7s.6 0 .7.3c.5 1.1 1.3 1.8 2.4 2 .3.1.5.3.4.6-.2.3-.4.5-.6.5z"/><path d="m21.6 20.3h-.1c-1.5-.4-2.5-1.3-3-2.8-.1-.3 0-.6.3-.7s.6 0 .7.3c.4 1.2 1.2 1.9 2.3 2.1.3.1.5.4.4.6-.1.3-.3.5-.6.5z"/><path d="m20.4 21.5h-.1c-1.4-.4-2.4-1.4-2.9-2.9-.1-.3.1-.6.3-.7.3-.1.6.1.7.3.4 1.2 1.1 1.9 2.2 2.2.3.1.4.4.4.7-.1.3-.3.4-.6.4z"/><path d="m19.2 22.7c-.1 0-.1 0-.2 0-1.4-.5-2.4-1.5-2.8-3-.1-.3.1-.6.4-.7s.6.1.7.4c.3 1.2 1.1 1.9 2.1 2.3.3.1.4.4.3.7-.1.2-.3.3-.5.3z"/><path d="m17.9 23.9c-.1 0-.1 0-.2 0-1.4-.5-2.3-1.6-2.7-3.1-.1-.3.1-.6.4-.6.3-.1.6.1.6.4.3 1.2 1 2 2.1 2.4.3.1.4.4.3.7-.1.1-.3.2-.5.2z"/><path d="m16.6 25c-.1 0-.1 0-.2 0-1.4-.6-2.3-1.6-2.6-3.2-.1-.3.1-.6.4-.6.3-.1.6.1.6.4.3 1.2.9 2 2 2.4.3.1.4.4.3.7-.1.2-.3.3-.5.3z"/><path d="m15.2 26.1c-.1 0-.1 0-.2 0-1.4-.6-2.2-1.7-2.5-3.3-.1-.3.1-.6.4-.6.3-.1.6.1.6.4.2 1.2.8 2 1.9 2.5.3.1.4.4.3.7-.1.2-.3.3-.5.3z"/><path d="m13.8 27.1c-.1 0-.2 0-.2-.1-1.3-.7-2.1-1.8-2.4-3.4 0-.3.2-.6.4-.6.3 0 .6.2.6.4.2 1.2.8 2.1 1.8 2.6.3.1.4.4.2.7 0 .3-.2.4-.4.4z"/><path d="m12.4 28.1c-.1 0-.2 0-.3-.1-1.3-.7-2.1-1.9-2.2-3.4 0-.3.2-.6.5-.6s.6.2.6.5c.1 1.2.7 2.1 1.7 2.6.3.1.4.5.2.7s-.4.3-.5.3z"/><path d="m10.9 29c-.1 0-.2 0-.3-.1-1.3-.8-2-1.9-2.1-3.5 0-.3.2-.5.5-.6.3 0 .5.2.6.5.1 1.2.6 2.1 1.6 2.7.3.1.3.5.2.7-.2.2-.3.3-.5.3z"/><path d="m9.4 29.9c-.1 0-.2 0-.3-.1-1.3-.8-1.9-2-2-3.6 0-.3.2-.5.5-.5s.5.2.5.5c0 1.2.5 2.1 1.5 2.7.2.2.3.5.2.7s-.3.3-.4.3z"/><path d="m7.8 30.7c-.1 0-.2 0-.3-.1-1.2-.8-1.9-2.1-1.9-3.7 0-.3.2-.5.5-.5s.5.2.5.5c0 1.2.5 2.1 1.4 2.8.2.2.3.5.1.7 0 .2-.1.3-.3.3z"/><path d="m6.2 31.5c-.1 0-.2 0-.3-.1-1.2-.9-1.8-2.2-1.7-3.7 0-.3.3-.5.5-.5.3 0 .5.3.5.5 0 1.2.4 2.2 1.3 2.8.2.2.3.5.1.7 0 .2-.2.3-.4.3z"/><path d="m4.6 32.2c-.1 0-.2 0-.3-.1-1.2-.9-1.7-2.2-1.6-3.8 0-.3.3-.5.6-.5s.5.3.5.6c-.1 1.2.3 2.2 1.2 2.9.2.1.2.4 0 .7-.1.1-.2.2-.4.2z"/><path d="m3 32.8c-.1 0-.2 0-.3-.1-1.2-1-1.6-2.3-1.5-3.9 0-.3.3-.5.6-.5s.5.3.5.6c-.1 1.2.2 2.2 1.1 2.9.2.2.2.5.1.7-.2.3-.4.3-.5.3z"/><path d="m1.3 33.4c-.1 0-.3 0-.4-.1-1.1-1-1.6-2.3-1.3-3.9 0-.3.3-.5.6-.4.3 0 .5.3.4.6-.2 1.2.1 2.2 1 3 .2.2.2.5 0 .7 0 .1-.1.1-.3.1z"/><path d="m-.4 34c-.1 0-.3-.1-.4-.2-1.1-1.1-1.5-2.4-1.2-4 .1-.3.3-.5.6-.4s.5.3.4.6c-.2 1.2.1 2.2.9 3 .2.2.2.5 0 .7 0 .2-.2.3-.3.3z"/><path d="m-2.1 34.4c-.1 0-.3-.1-.4-.2-1-1.1-1.4-2.4-1-4 .1-.3.4-.5.6-.4.3.1.5.4.4.6-.3 1.2 0 2.2.8 3 .2.2.2.5 0 .7-.1.3-.3.3-.4.3z"/><path d="m-3.9 34.8c-.1 0-.3-.1-.4-.2-1-1.1-1.3-2.5-.9-4 .1-.3.4-.4.6-.4.3.1.4.4.4.6-.3 1.2-.1 2.2.7 3.1.2.2.2.6 0 .7-.1.2-.2.2-.4.2z"/><path d="m-5.6 35.2c-.2 0-.3-.1-.4-.2-1-1.2-1.2-2.5-.7-4.1.1-.3.4-.4.7-.3s.4.4.3.7c-.4 1.2-.2 2.2.5 3.1.2.2.2.6-.1.7-.1 0-.2.1-.3.1z"/><path d="m-7.4 35.5c-.2 0-.3-.1-.4-.2-.9-1.2-1.1-2.6-.6-4.1.1-.3.4-.4.7-.3s.4.4.3.7c-.4 1.2-.3 2.2.4 3.1.2.2.1.6-.1.7-.1 0-.2.1-.3.1z"/><path d="m-9.2 35.7c-.2 0-.3-.1-.4-.2-.9-1.2-1-2.6-.4-4.1.1-.3.4-.4.7-.3s.4.4.3.7c-.5 1.1-.4 2.2.3 3.1.2.2.1.6-.1.7s-.3.1-.4.1z"/><path d="m-11.1 35.8c-.2 0-.3-.1-.4-.2-.9-1.3-.9-2.7-.3-4.1.1-.3.4-.4.7-.3s.4.4.3.7c-.5 1.1-.5 2.1.2 3.1.2.2.1.6-.1.7s-.3.1-.4.1z"/><path d="m-12.9 35.9c-.2 0-.4-.1-.4-.3-.8-1.3-.8-2.7-.1-4.1.1-.3.5-.4.7-.2.3.1.4.5.2.7-.6 1.1-.5 2.1.1 3.1.2.2.1.6-.2.7-.1.1-.2.1-.3.1z"/></g></g><path d="m43.3 3c1.4 3.5 2.1 7.3 2.1 11.3 0 17.1-13.9 31-31 31-4 0-7.8-.7-11.3-2.1 4.5 11.5 15.7 19.7 28.9 19.7 17.1 0 31-13.9 31-31 .1-13.2-8.1-24.4-19.7-28.9z" opacity=".05"/><path d="m49.1 6c3.2 4.9 5.1 10.8 5.1 17.1 0 17.1-13.9 31-31 31-6.3 0-12.2-1.9-17.1-5.1 5.5 8.4 15.1 13.9 25.9 13.9 17.1 0 31-13.9 31-31 .1-10.9-5.5-20.4-13.9-25.9z" opacity=".05"/></svg>