<svg enable-background="new 0 0 64 64" viewBox="0 0 64 64" xmlns="http://www.w3.org/2000/svg" xmlns:xlink="http://www.w3.org/1999/xlink"><clipPath id="a"><ellipse cx="32.1" cy="32.1" rx="31" ry="31"/></clipPath><clipPath id="b"><ellipse cx="32.1" cy="32.1" rx="31" ry="31"/></clipPath><clipPath id="c"><ellipse cx="32.1" cy="32.1" rx="31" ry="31"/></clipPath><clipPath id="d"><ellipse cx="32.1" cy="32.1" rx="31" ry="31"/></clipPath><clipPath id="e"><ellipse cx="32.1" cy="32.1" rx="31" ry="31"/></clipPath><clipPath id="f"><ellipse cx="32.1" cy="32.1" rx="31" ry="31"/></clipPath><clipPath id="g"><ellipse cx="32.1" cy="32.1" rx="31" ry="31"/></clipPath><clipPath id="h"><ellipse cx="32.1" cy="32.1" rx="31" ry="31"/></clipPath><clipPath id="i"><ellipse cx="32.1" cy="32.1" rx="31" ry="31"/></clipPath><clipPath id="j"><ellipse cx="32.1" cy="32.1" rx="31" ry="31"/></clipPath><clipPath id="k"><ellipse cx="32.1" cy="32.1" rx="31" ry="31"/></clipPath><clipPath id="l"><ellipse cx="32.1" cy="32.1" rx="31" ry="31"/></clipPath><clipPath id="m"><ellipse cx="32.1" cy="32.1" rx="31" ry="31"/></clipPath><clipPath id="n"><ellipse cx="32.1" cy="32.1" rx="31" ry="31"/></clipPath><clipPath id="o"><ellipse cx="32.1" cy="32.1" rx="31" ry="31"/></clipPath><clipPath id="p"><ellipse cx="32.1" cy="32.1" rx="31" ry="31"/></clipPath><clipPath id="q"><ellipse cx="32.1" cy="32.1" rx="31" ry="31"/></clipPath><ellipse cx="32.1" cy="32.1" fill="#fff" rx="30.5" ry="30.5"/><path d="m32.1 2.1c8 0 15.5 3.1 21.2 8.8s8.8 13.2 8.8 21.2-3.1 15.5-8.8 21.1-13.2 8.8-21.2 8.8-15.5-3.1-21.1-8.8-8.8-13.1-8.8-21.1 3.1-15.5 8.8-21.2 13.1-8.8 21.1-8.8m0-1c-17.1 0-31 13.9-31 31s13.9 31 31 31 31-13.9 31-31-13.8-31-31-31z"/><g clip-path="url(#a)"><path d="m37.3 34.1c-2.4-2.8-4.5-6.3-6.3-10.6 2.2-3.8 4.7-6.7 7.6-8.9 4.5.8 8.2 2.5 11.3 5.2.5 3.3.5 7.3 0 11.9-3.9 1.5-8.1 2.2-12.6 2.4z"/><path d="m38.7 15.2c4.2.8 7.8 2.4 10.6 4.9.4 3.2.4 6.9 0 11.3-3.6 1.3-7.6 2-11.8 2.2-2.2-2.6-4.2-6-6-10 2.2-3.6 4.5-6.4 7.2-8.4m-.3-1.1c-3.4 2.4-5.9 5.7-8 9.4 1.9 4.4 4.1 8.2 6.7 11.2 4.8-.1 9.2-1 13.2-2.5.5-4.6.6-8.9 0-12.6-3.1-2.9-7.1-4.7-11.9-5.5z"/></g><g clip-path="url(#b)"><path d="m9.6 35.9c-3-.5-5.1-1.3-6.6-2.5-.2-4 0-7.8.6-11.4 2.6-2.4 5-4.1 7.4-5.1 1.3 2.8 2.7 5.3 4.1 7.4-2.3 3.2-4 7-5.5 11.6z"/><path d="m10.8 17.6c1.2 2.5 2.4 4.7 3.7 6.7-2.1 3-3.8 6.6-5.2 11-2.5-.5-4.4-1.2-5.8-2.1-.2-3.8 0-7.4.6-10.8 2.3-2.2 4.5-3.7 6.7-4.8m.5-1.4c-2.5 1-5.2 2.8-8.2 5.6-.7 3.9-.9 7.9-.7 11.9 1.8 1.5 4.5 2.3 7.5 2.8 1.3-4.5 3.2-8.6 5.7-12.1-1.3-2.3-2.8-5.1-4.3-8.2z"/></g><g clip-path="url(#c)"><path d="m19.4 4.5c4.1-2.1 8.3-3.2 12.4-3.2 1.5 0 2.9.1 4.4.4-2 .9-3.7 2.3-4.7 3.2-1.3-.2-2.6-.3-3.9-.3-2.7 0-5.5.5-8.2 1.5z"/><path d="m31.9 1.9c.9 0 1.8.1 2.7.2-1.3.8-2.4 1.7-3.2 2.4-1.2-.2-2.5-.3-3.7-.3-2.6 0-5.1.4-7.7 1.3v-.7c3.9-1.9 7.9-2.9 11.9-2.9m0-1.1c-4.8 0-9.2 1.4-13 3.3v2.7c3-1.2 5.9-1.7 8.8-1.7 1.4 0 2.7.1 4.1.4 1.5-1.4 3.8-3.1 6.4-3.9-2.2-.5-4.3-.8-6.3-.8z"/></g><g clip-path="url(#d)"><path d="m61.2 20.3c-1.4-1.9-2.8-3.3-4.4-4.4-.6-1.8-1.3-3.4-2.2-4.9 2.9 2.4 5 5.5 6.6 9.3z"/><path d="m56.5 13.6c.9 1 1.7 2.1 2.4 3.4-.5-.5-1.1-1-1.7-1.4-.2-.7-.4-1.4-.7-2m-4-4.9c1.8 2.3 3 4.8 3.9 7.5 2.9 2 5 4.9 6.7 8.1-1.7-6.5-5-12-10.6-15.6z"/></g><g clip-path="url(#e)"><path d="m52.7 54.5c-.8-.2-1.5-.8-2.2-1.7 2.6-3.1 4.6-6.9 5.8-11.2 1.2-.3 3.9-1.1 6.1-2.8 0 .5-.2 1.2-.5 2.1-.2.5-.3 1-.5 1.6-1.3 4.4-4.2 8.3-8.7 12z"/><path d="m61.6 39.9c-.1.2-.2.5-.2.7-.2.5-.3 1-.5 1.6-1.3 4.3-4 8.1-8.3 11.6-.5-.2-1-.5-1.4-1.1 2.5-3 4.4-6.7 5.6-10.8 1.1-.3 3-.9 4.8-2m1-2c-1.9 1.7-4.8 2.7-6.7 3.2-1.3 4.6-3.3 8.5-6 11.6.7 1.2 1.7 2.1 3 2.4 4.3-3.4 7.6-7.5 9.1-12.5.4-2.1 1.4-3.7.6-4.7z"/></g><g clip-path="url(#f)"><path d="m29.5 60.5c-4.6-.4-8.6-2.1-12.1-4.9-.4-2.1-.3-4.4.3-7 3.9-.5 8.1-1 12.4-1.3l6.8 8.5c-1.9 1.9-4.4 3.5-7.4 4.7z"/><path d="m29.8 47.9 6.3 7.9c-1.7 1.7-4 3.1-6.8 4.2-4.4-.4-8.2-2-11.5-4.7-.4-1.8-.3-3.9.2-6.2 3.8-.5 7.8-.9 11.8-1.2m.5-1.1c-4.7.4-9 .8-13.1 1.4-.7 2.7-.9 5.3-.4 7.7 3.6 3 7.8 4.8 12.6 5.2 3.4-1.3 6.1-3 8-5.2z"/></g><path clip-path="url(#g)" d="m38.1 15.3c-.7-4.2-4.9-9.3-7.7-10.3l.5-1.5c3.6 1.2 8.1 7.1 8.8 11.5z"/><path clip-path="url(#h)" d="m11.2 17.4-1.5-.4c1.6-6 5.2-10 10.8-12.2l.6 1.5c-5.2 2-8.4 5.7-9.9 11.1z"/><path clip-path="url(#i)" d="m15.3 25.1-.3-1.5c.1 0 7.5-1.2 16.8-1v1.6c-9.1-.3-16.4.9-16.5.9z"/><path clip-path="url(#j)" d="m30.4 48.9-1.5-.4c.1-.3 2-7.9 8.6-15.5l1.2 1c-6.3 7.3-8.3 14.8-8.3 14.9z"/><path clip-path="url(#k)" d="m17.9 50.1c-7.2-7.2-8.8-14.4-8.9-14.7l1.5-.3-.8.2.8-.2s.4 1.8 1.6 4.4c1.1 2.4 3.2 6 6.9 9.5z"/><path clip-path="url(#l)" d="m38.9 56.7c-1.8 0-2.9-.3-3-.4l.5-1.5c.1 0 5.1 1.6 14-3.1l.7 1.4c-5.5 3-9.7 3.6-12.2 3.6z"/><path clip-path="url(#m)" d="m55.2 43c-.3-8.8-6-10.8-6-10.8l.5-1.5c.3.1 6.7 2.4 7.1 12.2z"/><path clip-path="url(#n)" d="m49.2 21.6-.3-.7-.5-.6c1-1.1 4.7-4.6 9.1-5.1l.2 1.5c-3.9.5-7.3 3.6-8.2 4.6-.1.2-.2.3-.3.3z"/><path clip-path="url(#o)" d="m31.3 63.7c-2.3-1.3-3.2-3.8-3.3-3.9l1.5-.5-.7.3.7-.3s.8 2.1 2.6 3.1z"/><path clip-path="url(#p)" d="m13.7 57.1c-.9 0-1.4-.2-1.6-.4l1-1.2c.4.2 2.6-.1 4.7-.8l.5 1.5c-2.2.7-3.6.9-4.6.9z"/><path clip-path="url(#q)" d="m2.2 36.2-1.5-.1c.1-.8 1.2-2.7 1.9-3.9l1.3.8c-.8 1.3-1.6 2.9-1.7 3.2z"/><path d="m43.4 3.2c1.4 3.5 2.1 7.3 2.1 11.3 0 17.1-13.9 31-31 31-4 0-7.8-.8-11.3-2.1 4.6 11.5 15.8 19.7 28.9 19.7 17.1 0 31-13.9 31-31 0-13.2-8.1-24.4-19.7-28.9z" opacity=".1"/><path d="m49.2 6.2c3.2 4.9 5.1 10.8 5.1 17.1 0 17.1-13.9 31-31 31-6.3 0-12.2-1.9-17.1-5.1 5.5 8.4 15.1 13.9 25.9 13.9 17.1 0 31-13.9 31-31 0-10.8-5.5-20.3-13.9-25.9z" opacity=".1"/></svg>