<svg enable-background="new 0 0 64 64" viewBox="0 0 64 64" xmlns="http://www.w3.org/2000/svg"><path d="m17.5 31.8c3.7-6.5 9.8-11.6 17.5-14-1-1.4-2.2-2.7-3.4-3.9-.9-.9-1.9-1.7-3-2.4-7.7 1.7-13.9 6.4-17.9 12.5-4 6.2-5.7 14-4.1 21.8v.1.2.1l.1.3c2 3.4 4.5 6.3 7.5 8.5-2-8.2-.6-16.4 3.3-23.2z" fill="#15226b"/><path d="m25.3 47.2v-.1c.4-1.9.9-3.7 1.6-5.5.9-2.3 2.2-4.5 3.6-6.6 0 0 0-.1.1-.1 2.3-3.2 5.3-5.9 8.8-8.1-.8-2.7-1.9-5.2-3.4-7.5-7.4 2.2-13.4 7.1-17 13.3-3.7 6.4-5 14.3-2.9 22v.1c.1.4.2.7.3 1.1.1.3.2.5.3.8 2.4 1.5 5 2.6 7.7 3.3.3.1.7.2 1 .2-.9-4.2-1-8.7-.1-12.9z" fill="#ffb206"/><path d="m46.5 12.2c3.9 5 6.3 11.3 6.4 18.1 2.7.2 5.4.1 8.1-.4-.3-4.2-1.5-8.5-3.8-12.4-4-6.9-10.5-11.6-17.6-13.5-1.6-.5-3.1-.8-4.6-1 4.5 2.1 8.5 5.3 11.5 9.2z" fill="#ffb206"/><path d="m29.4 9.7c1.2.8 2.4 1.8 3.4 2.8 1.6 1.5 3.1 3.3 4.4 5.2 0 0 0 .1.1.1 1.8 2.6 3.2 5.6 4.1 8.8 3.1 1.7 6.3 2.8 9.6 3.4-.2-6.3-2.4-12-6-16.7-3.9-5-9.3-8.7-15.6-10.3-3.1.3-6.2 1-9.1 2.4 3.2.9 6.2 2.4 9 4.3z" fill="#15226b"/><path d="m26.5 10.1c-2.7-1.6-5.6-2.8-8.7-3.4l-.2.1c-7.1 4-11.7 10.4-13.6 17.6-1.3 5-1.4 10.4.1 15.6-.1-6.2 1.8-12.1 5-17.1 3.9-6 10-10.7 17.4-12.8z" fill="#e8e8e8"/><path d="m44.2 44.1c-4.6-1.3-9-3.7-12.7-7.1-1.1 1.7-2.1 3.5-2.8 5.3-.6 1.5-1.1 3.1-1.5 4.7 3 2.9 6.5 5 10.2 6.4 3.9 1.4 8.1 2 12.2 1.7 3.7-2.8 6.6-6.3 8.5-10.3-4.6.8-9.4.6-13.9-.7z" fill="#15226b"/><path d="m26.8 49.2c-.5 3.8-.3 7.6.7 11.4 6.3 1 13-.1 19-3.5l.1-.1c-3.4-.1-6.7-.7-9.9-1.9-3.5-1.3-6.9-3.3-9.9-5.9z" fill="#e8e8e8"/><path d="m32 .9c-17.1 0-31 13.9-31 31s13.9 31 31 31 31-13.9 31-31-13.9-31-31-31zm15.5 57.8s-.1.1-.1.1c-7.4 4.2-15.8 5-23.4 3s-14.5-7-18.7-14.3c0 0-.1-.1-.1-.1-4.2-7.4-5.1-15.8-3-23.4 2-7.6 7-14.5 14.3-18.7 0 0 .1-.1.1-.1 7.4-4.3 15.8-5.2 23.4-3.1 7.6 2 14.5 7 18.7 14.3 0 0 .1.1.1.1 4.2 7.4 5.1 15.8 3 23.4-2 7.6-6.9 14.5-14.3 18.8z"/><path d="m52 32c-.1 0-.1 0-.2 0-.3 0-.7-.1-1-.1-3.5-.5-6.9-1.7-10.2-3.5-3.2 1.9-5.8 4.3-8 7.1 3.5 3.3 7.7 5.6 12.1 6.9 4.7 1.3 9.6 1.4 14.3.4.4-1.1.8-2.1 1.1-3.2.7-2.5 1-5.1 1-7.7-3 .4-6.1.5-9.1.1z" fill="#ffb206"/><path d="m58.8 16.6s0-.1-.1-.1c-4.2-7.4-11.1-12.4-18.7-14.4s-16-1.2-23.4 3c0 0-.1 0-.1.1-7.4 4.3-12.3 11.1-14.4 18.7-2 7.6-1.2 16 3 23.4 0 0 0 .1.1.1 4.3 7.4 11.2 12.3 18.8 14.4 7.6 2 16 1.2 23.4-3 0 0 .1 0 .1-.1 7.4-4.3 12.3-11.1 14.3-18.7 2.1-7.7 1.2-16.1-3-23.4zm-19.3-12.7c7.2 1.9 13.6 6.6 17.6 13.5 2.3 3.9 3.5 8.2 3.8 12.4-2.6.5-5.4.6-8.1.4-.2-6.8-2.6-13-6.4-18.1-3-3.9-6.9-7-11.4-9.1 1.5.2 3 .5 4.5.9zm-10.1-.9c6.3 1.6 11.7 5.3 15.6 10.3 3.6 4.6 5.8 10.4 6 16.7-3.3-.5-6.6-1.6-9.6-3.4-.9-3.2-2.3-6.2-4.1-8.8 0 0 0-.1-.1-.1-1.3-1.9-2.8-3.6-4.4-5.2-1.1-1-2.2-2-3.4-2.8 0 0-.1-.1-.1-.1-2.7-1.9-5.8-3.3-9-4.3 2.9-1.3 6-2 9.1-2.3zm-25.3 37c-1.5-5.2-1.5-10.6-.1-15.6 1.9-7.2 6.6-13.6 13.5-17.6l.2-.1c3.1.7 6 1.8 8.7 3.4-7.3 2.1-13.4 6.8-17.3 12.8-3.2 5-5.1 10.9-5 17.1zm2.8 6.4-.2-.3v-.1-.2-.1c-1.6-7.8 0-15.6 4.1-21.8 4-6.1 10.3-10.8 17.9-12.5 1 .7 2 1.6 3 2.4 1.2 1.2 2.4 2.5 3.4 3.9-7.6 2.4-13.7 7.5-17.5 14-3.9 6.8-5.3 15-3.2 23.2-3-2.2-5.6-5-7.5-8.5zm17.6 13.6c-2.7-.7-5.3-1.8-7.7-3.3-.1-.3-.2-.5-.3-.8-.1-.4-.2-.7-.3-1.1v-.1c-2.1-7.7-.8-15.6 2.9-22 3.6-6.3 9.5-11.2 17-13.3 1.4 2.3 2.6 4.8 3.4 7.5-3.6 2.2-6.5 4.9-8.8 8.1 0 0 0 .1-.1.1-1.5 2-2.7 4.3-3.6 6.6-.7 1.8-1.3 3.6-1.6 5.5v.1c-.9 4.3-.8 8.7.2 13-.5-.2-.8-.2-1.1-.3zm22-2.9c-6 3.5-12.7 4.5-19 3.5-1-3.8-1.2-7.7-.7-11.4 3 2.7 6.4 4.6 9.9 5.9 3.2 1.2 6.5 1.8 9.9 1.9zm3-2c-4.1.3-8.3-.3-12.2-1.7-3.7-1.4-7.2-3.5-10.2-6.4.4-1.6.8-3.2 1.5-4.7.8-1.9 1.7-3.7 2.8-5.3 3.7 3.5 8.1 5.8 12.7 7.1 4.5 1.3 9.3 1.5 13.9.7-1.9 3.9-4.8 7.5-8.5 10.3zm10.5-15.7c-.3 1.1-.6 2.2-1.1 3.2-4.7 1.1-9.6.9-14.3-.4-4.4-1.2-8.6-3.5-12.1-6.9 2.1-2.8 4.8-5.2 8-7.1 3.3 1.8 6.7 3 10.2 3.5.3.1.7.1 1 .1h.2c3.1.4 6.1.3 9.1-.3.1 2.8-.3 5.4-1 7.9z"/><path d="m43.2 3.4c1.4 3.5 2.1 7.3 2.1 11.2 0 17.1-13.8 30.9-30.9 30.9-4 0-7.8-.8-11.2-2.1 4.5 11.5 15.7 19.7 28.8 19.7 17.1 0 30.9-13.8 30.9-30.9 0-13.1-8.2-24.3-19.7-28.8z" opacity=".05"/><path d="m49 6.4c3.2 4.9 5.1 10.7 5.1 17 0 17.1-13.8 30.9-30.9 30.9-6.3 0-12.1-1.9-17-5.1 5.5 8.4 15 13.9 25.8 13.9 17.1 0 30.9-13.8 30.9-30.9 0-10.8-5.6-20.3-13.9-25.8z" opacity=".05"/></svg>