<svg xmlns="http://www.w3.org/2000/svg" width="128" height="128" viewBox="0 0 50 50" class="icon game-icon icon-dota-2-tint"><path xmlns="http://www.w3.org/2000/svg" d="M28.938 0l-8.58.142-1.745 1.313.145.142-5.67.143.435-.584L.581.865l-.145.875-.145 1.312.873 1.604L.727 8.01 0 10.926l.436 2.77.145 2.187.873 2.917-.292 1.457.145 1.604 1.018 1.167.291 1.896-1.89.73.291 5.831 1.164.875-.727 5.104-.582.291-.436 9.77.514-.069 1.236.255s1.491.518 1.8.62c.309.102.768-.465.768-.465H5.99l1.027-.206.568.26.514-.051 1.286-.098.614-.26.258.62.205-.148.568-.26 1.18-.098.256.36s1.44.149 1.954.149c.513 0 .413-.415.413-.415s.153-.046.41.21c.257.257.617-.1.617-.1l.513-.26.364.365.359.255.977-.204h1.59l.364-.101 1.491 2.114.1-1.08h2.418c.206 0 .105.72.105.72l1.59-.515.822.823 1.7-1.085.923-.148 1.8-.098h2.572l2.931.204.773-.31.563-.515 1.545.875 1.128-.464s1.235.468 1.441.52c.206.051 2.109-.21 2.109-.21l1.18-.31-.767-.565.514-.204 2.159.098 2.876.724-.05-18.825v-1.185l-.717.101-.928.15v-.57l.514-.465.414-.615.1-2.218-.155-1.6-.668-1.959-.614-.825-.105-.77.155-.516.05-.15.668-.26.105-.26-.514-.875.464-.264.727-.437.292-2.624.145-1.75V6.416l-.437-1.75.292-1.895.145-.729-1.31-.583L43.63.585l-.728 1.02-.29-1.166-9.453-.143-.291 1.604-2.327.292-.29-1.02L28.212.88l.728-.875L28.938 0zM10.46 8.234l33.836 22.993-2.676 9.586-6.376.21L5.732 9.473l4.731-1.238-.003-.001zm26.843.416l3.703 1.955-1.03 7.217-.718.21-9.871-7.525 7.916-1.855V8.65zM9.54 29.376l10.075 10.1-6.068 2.164-3.186-.204-3.908-3.298 3.086-8.762h.001z" fill="#ea473b"></path></svg>