<svg xmlns="http://www.w3.org/2000/svg" xmlns:xlink="http://www.w3.org/1999/xlink" viewBox="0 0 50 50" width="128" height="128" class="icon game-icon icon-csgo-tint"><path xmlns="http://www.w3.org/2000/svg" d="M27.27 50a54.31 54.31 0 0 0-2.17-5.1 20.61 20.61 0 0 0-3.03-4.14c-.2-.6-.27-1.23-.42-1.84l.35-.68c.52.07 1.2.57 1.64.09.5-.75.89-1.59.84-2.5 0-1.55.44-3.1.22-4.64a1.7 1.7 0 0 0-1.41-1.36c.14-.5.27-1 .36-1.52 1.85.94 3.65 2.17 5.78 2.36-.08.39.68.54.08.05 1.18.17 1.76-.92 2.63-1.42 1.14-.8.84-2.36 1.33-3.5.35-.12.7-.22 1.04-.32-.18-1.11-.64-2.18-.56-3.33.62-.46 1.35-.96 1.6-1.7l.73-.36c1.75-.03 3.51 0 5.27-.01.45.02.29-.57.4-.83.44.28 1 .32 1.5.18.85-.28 1.75-.13 2.63-.17.57.02 1.2-.1 1.67.3.73-.13 1.48-.12 2.22-.1 0-.3.02-.6.03-.89-.58 0-1.15 0-1.73.02l-.52-.2-.38.27c-1.28.1-2.57.02-3.85.03.02-.39.22-.83-.13-1.15l-.3.35-.4-.48-.01-1.94-.46.02v2.46h-.47c0-.16.03-.47.04-.62-4.57-.05-9.13 0-13.7-.03v-.41l-.83-.21c0-.42-.01-.85-.23-1.23-.18.57-.3 1.15-.44 1.73-1.04-.08-1.93.65-2.98.48-.05-.6-.15-1.2-.15-1.8.5-.16 1.1-.22 1.45-.64.51-1.25.18-2.66-.35-3.84l.11-.28-.23-.42c-.74-.28-1.4-.7-2.07-1.12-.94-.46-2.07-.76-3.1-.4-3.13.55-4.78 4.5-3.4 7.19l-.5.45c-.6-.81-1.68-.59-2.53-.39-1.8.6-2.96 2.25-3.57 3.95-.75 2-.69 4.19-.43 6.27-.84.4-1.78.15-2.64.44a35.63 35.63 0 0 1-.47 4.99c-.07.49-.17 1 .01 1.47.76.17 1.52.37 2.3.47-.48.09-.93.26-1.36.48l.07.74-.4-.48c-.26 2.18.5 4.28.44 6.46-1.02-.22-.98.96-1.12 1.61l.42.39c-.13.23-.24.46-.33.7.18.63 0 1.37.56 1.83-.23 1.42-.49 2.84-.68 4.26A6 6 0 0 1 0 44V6a6 6 0 0 1 6-6h38a6 6 0 0 1 6 6v38a6 6 0 0 1-6 6H27.27zm-8.77 0H12.6c.32-.87.66-1.74 1.36-2.39.47-.4.44-1.09.84-1.53.29.54.51 1.13.95 1.58.39.16.82.12 1.23.14l1.5 2.2zm11.36-28.99l.85-.01c.16.39.25.8.29 1.22l-.34.36c-.41.91-1.01 1.78-1.76 2.42-.25-.63-.55-1.23-.9-1.8-.07-.5.62-.64.92-.89l.59-.35c-.4-.43-.03-.7.35-.95z" fill="#d9d9d9"></path></svg>