<svg enable-background="new 0 0 500 500" viewBox="0 0 500 500" xmlns="http://www.w3.org/2000/svg"><path d="m250 494.1c122 0 220.9-98.9 220.9-220.8 0-122-98.9-220.8-220.8-220.8-122 0-220.9 98.9-220.9 220.8 0 121.9 98.8 220.8 220.8 220.8z" fill="#ff9c00"/><path d="m250 470.8c109.1 0 197.6-88.5 197.6-197.6s-88.5-197.6-197.6-197.6-197.6 88.5-197.6 197.6c0 109.2 88.5 197.7 197.6 197.6z" fill="#01579b"/><path d="m366.2 343c10.7 33.9-25.2 58.6-53.3 58.6-15.4 0-34.4-5.9-39.7-23.8-16.1 8.7-31.7 18.5-46.5 29.3v17.2h150.1c23.4-19.6 42-44.3 54.3-72.3-9.9-3.7-30.1-9-64.9-9zm29.8-202.6c-34.4 10.3-66.3 27.6-93.6 51-10.2 31.1-34.8 65.4-75.7 93.5v81.4s32.5-59.4 109.5-77.5c36.6-8.6 73.9-13.9 111.4-16.1-.1-49-18.5-96.2-51.6-132.3z" fill="#0277bd"/><path d="m376.9 122.1c-11.1-9.3-23.1-17.4-35.9-24.1-12.9 6-29.1 14.2-44.5 24.2 7.3 9.1 11.1 21.4 11.4 35.3 21.3-15 44.5-26.9 69-35.4z" fill="#0091ea"/><path d="m250 447.6c96.3 0 174.4-78.1 174.4-174.3 0-96.3-78.1-174.4-174.4-174.4s-174.3 78.1-174.3 174.4c0 96.2 78 174.3 174.3 174.3z" fill="#0277bd"/><path d="m314.6 111.4c-6.2 3.4-12.2 7-18.1 10.7 7.3 9.1 11.1 21.4 11.4 35.3 13.9-9.8 28.7-18.2 44.2-25.3-11.6-8.4-24.2-15.4-37.5-20.7z" fill="#00b0ff"/><path d="m424.4 273.3c0-48.7-20-92.7-52.2-124.3-33.4 13.7-57.6 31.9-69.7 42.4-10.2 31.1-34.8 65.4-75.7 93.5v81.4s32.5-59.4 109.5-77.5c29-6.8 58.4-11.5 88.1-14.3-.1-.5 0-.9 0-1.2z" fill="#0091ea"/><path d="m429.9 401.1h-75.2v23.3h56.1c6.8-7.4 13.2-15.1 19.1-23.3zm-331 32.9c7.3 6.9 15.1 13.3 23.3 19.1v-359.7c-8.2 5.8-15.9 12.2-23.3 19.1z" fill="#b3831d"/><path d="m98.9 400.4c7.1 8.4 14.9 16.2 23.3 23.3v-301c-8.4 7.1-16.2 14.9-23.3 23.3z" fill="#01579b"/><path d="m87.3 5.9h139.5v418.4h232.5l-58.1 69.7h-313.9l34.9-46.5v-395.1z" fill="#ffc107"/><path d="m250 401.1v-325.5c-7.9 0-15.6.6-23.2 1.5v347.2h150.4c8.4-7.1 16.2-14.9 23.3-23.3h-150.5z" fill="#01579b"/><path d="m250 266.2c-7.3 6.8-15 13-23.2 18.7v81.4s7.4-13.4 23.3-29.3z" fill="#0277bd"/><path d="m226.8 424.4v-418.5h-23.2v441.7h236.3l19.4-23.2z" fill="#ff9c00"/><path d="m366.2 343c10.7 33.9-25.2 58.6-53.3 58.6-15.4 0-34.4-5.9-39.7-23.8-16.1 8.7-31.7 18.5-46.5 29.3v17.2h110c31.3-18 56.3-45.4 71.5-78.2-10.7-1.8-24.5-3.1-42-3.1z" fill="#0091ea"/><path d="m393.5 408.7c2.3-2.4 4.3-5.1 6.4-7.6h-80.1c-2.3.3-4.6.5-6.9.5-2.4 0-4.9-.2-7.5-.5h-55.4v-9.7c-7.9 5-15.7 10.2-23.3 15.7v17.2h150.1c5.8-4.9 11.3-10 16.5-15.5z" fill="#0277bd"/></svg>