<svg data-editor-id="verticalNavbarSportIcon" data-cy="sport-nba2k-b" width="32" height="32" viewBox="0 0 32 32" xmlns="http://www.w3.org/2000/svg" style="fill: currentcolor; color: #ff4646; width: auto; height: 32px;">
<path fill-rule="evenodd" clip-rule="evenodd" d="M27.9392 12.0105H25.5934C25.4772 12.0105 25.4046 11.9814 25.361 11.8652C25.263 11.6365 25.1613 11.4095 25.0596 11.1826L25.0592 11.1816C24.9576 10.955 24.8561 10.7283 24.7582 10.4999C24.7364 10.449 24.7146 10.4273 24.6493 10.4273H21.9985C21.9476 10.4273 21.9186 10.4418 21.8968 10.4926C21.6935 10.9719 21.4828 11.4585 21.2722 11.9379C21.2577 11.9669 21.2141 11.9959 21.1778 12.0032C21.1449 12.0142 21.1079 12.0127 21.073 12.0114C21.0616 12.0109 21.0505 12.0105 21.0398 12.0105H18.8684C18.6723 12.0105 18.6069 12.0105 18.7304 11.7853C18.7434 11.7592 18.755 11.7331 18.7678 11.7044C18.7834 11.6691 18.8008 11.63 18.8248 11.582C18.7629 11.6048 18.7068 11.6276 18.654 11.6491C18.5891 11.6755 18.529 11.7 18.4689 11.72C18.0114 11.887 17.5393 11.9814 17.06 11.9814C16.2133 11.9911 15.3633 11.9943 14.5143 11.9976C14.0891 11.9992 13.6641 12.0008 13.24 12.0032C13.1093 12.0032 13.0947 11.9887 13.0947 11.858V4.08715C13.0947 4.03631 13.1165 4.00726 13.1746 4.00726H16.7477C17.3069 4.00726 17.8589 4.07989 18.3818 4.28323C18.8538 4.4648 19.2533 4.74077 19.4929 5.20557C19.6091 5.4307 19.6745 5.6631 19.6963 5.91002C19.7326 6.30946 19.689 6.69437 19.4929 7.05023C19.3404 7.3262 19.1298 7.54407 18.8756 7.71837C18.8611 7.72563 18.8538 7.7329 18.8393 7.74742C18.8393 7.74742 18.8393 7.75468 18.8321 7.76921C19.1008 7.89993 19.355 8.05971 19.5583 8.27758C19.7689 8.50271 19.9142 8.76416 20.0158 9.07645C20.0449 9.03289 20.0594 9.01108 20.0739 8.98204L20.9236 7.19547C21.0762 6.87593 21.2268 6.55638 21.3775 6.23683C21.5282 5.91729 21.6789 5.59774 21.8314 5.27819C22.0203 4.87876 22.2091 4.47932 22.3979 4.07262C22.427 4.01452 22.456 4 22.5141 4H24.199C24.2716 4 24.3079 4.02905 24.337 4.08715C24.5403 4.5229 24.7509 4.95864 24.9616 5.39439C25.1104 5.70667 25.2593 6.01714 25.4082 6.32761C25.5571 6.63808 25.706 6.94855 25.8548 7.26084C25.9902 7.54495 26.125 7.83042 26.2598 8.11622C26.5662 8.76544 26.8735 9.41651 27.1911 10.0569C27.4744 10.6887 27.7068 11.3351 27.9392 12.0105ZM16.1522 10.0714H16.5589C16.6969 10.0714 16.8348 10.0641 16.9728 10.0569C17.1544 10.0424 17.3287 9.99152 17.4885 9.88984C17.7427 9.71554 17.8226 9.25801 17.4159 9.06919C17.2198 8.97477 17.0092 8.93846 16.7913 8.9312C16.3701 8.92394 15.9489 8.92394 15.5277 8.92394C15.4624 8.92394 15.4478 8.95299 15.455 9.00382V9.99152C15.455 10.0569 15.4768 10.0787 15.5422 10.0787C15.7455 10.0714 15.9489 10.0714 16.1522 10.0714ZM16.0433 6.98486H16.5081C16.6969 6.9776 16.893 6.95581 17.06 6.86866C17.2271 6.78152 17.3215 6.63627 17.3215 6.44744C17.3215 6.25136 17.2198 6.11337 17.0455 6.05527C16.8785 5.99717 16.6969 5.96086 16.5226 5.94633C16.2775 5.93544 16.0324 5.9368 15.7873 5.93816C15.7056 5.93862 15.6239 5.93907 15.5422 5.93907C15.4768 5.93907 15.4623 5.96086 15.4623 6.01896V6.90498C15.4623 6.96308 15.4768 6.98486 15.5349 6.9776C15.7019 6.98486 15.869 6.98486 16.0433 6.98486ZM23.8649 8.48819C23.6761 8.05244 23.4945 7.63122 23.2985 7.17369C23.1024 7.62396 22.9208 8.04518 22.732 8.48819H23.8649Z"></path>
<path d="M2.02827 24.963C2.02516 24.9383 2.02128 24.9136 2.01739 24.8889C2.00572 24.8148 1.99406 24.7407 2.00339 24.6667C2.16513 23.9259 2.33931 23.1728 2.51349 22.4321C2.52593 22.3704 2.58814 22.3086 2.65035 22.2716C3.90695 21.5679 5.1511 20.8765 6.4077 20.1852C6.99229 19.8643 7.57377 19.5403 8.15525 19.2163C8.73689 18.8923 9.31902 18.5679 9.90377 18.2469C10.053 18.1605 10.2053 18.0773 10.3576 17.994C10.5101 17.9106 10.6627 17.8272 10.812 17.7407L10.8298 17.7276C10.878 17.6925 10.9378 17.6487 10.9489 17.6049C11.0484 17.3333 11.1355 17.0617 11.2226 16.7901C11.2288 16.7778 11.2288 16.7654 11.2288 16.7515C11.2288 16.7377 11.2288 16.7222 11.235 16.7037H7.37814C7.25372 16.7037 7.20396 16.7407 7.16663 16.8519C7.13052 16.944 7.09228 17.0361 7.05366 17.1291C6.99915 17.2605 6.9439 17.3935 6.89292 17.5309C6.85559 17.6296 6.80583 17.6667 6.69385 17.6667H3.49638C3.33464 17.6667 3.32219 17.642 3.35952 17.4938C3.41109 17.2857 3.46076 17.0776 3.51036 16.8698C3.64027 16.3255 3.76977 15.7829 3.93183 15.2469C4.11845 14.6173 4.52902 14.1728 5.20087 14.0247C5.31284 14 5.43726 14 5.56167 14H13.8602C13.9846 14 14.109 14 14.2334 14.0247C14.7311 14.1358 15.0546 14.6049 14.9924 15.1605C14.955 15.4568 14.8928 15.7531 14.8306 16.0494C14.7777 16.2988 14.7232 16.5467 14.6688 16.7942C14.5698 17.2448 14.4711 17.6939 14.3827 18.1481C14.2583 18.7407 13.9224 19.1481 13.3874 19.4198C12.8584 19.6904 12.3294 19.9556 11.8041 20.219L11.8021 20.22L11.7986 20.2217C11.5353 20.3538 11.2721 20.4857 11.0111 20.6173L8.99554 21.6173C8.97065 21.6296 8.94888 21.642 8.92711 21.6543C8.90534 21.6667 8.88356 21.679 8.85868 21.6914C8.85868 21.7037 8.85868 21.716 8.87112 21.7284C8.89599 21.7284 8.92396 21.7315 8.95193 21.7346C8.97993 21.7376 9.00798 21.7407 9.03286 21.7407H13.3501C13.574 21.7407 13.574 21.7407 13.5243 21.963C13.4247 22.4321 13.3221 22.8981 13.2194 23.3642C13.1168 23.8301 13.0141 24.2964 12.9146 24.7654C12.9059 24.8263 12.8848 24.8811 12.8643 24.934C12.8558 24.9562 12.8473 24.9781 12.84 25C9.24437 24.963 5.63632 24.963 2.02827 24.963Z"></path>
<path d="M10.1892 8.5101C10.1819 8.5101 10.1746 8.5101 10.1601 8.52463C10.1528 8.51373 10.1438 8.50284 10.1347 8.49194C10.1256 8.48105 10.1165 8.47016 10.1093 8.45926C10.0875 8.42295 10.0639 8.38846 10.0403 8.35397C10.0167 8.31947 9.99307 8.28496 9.97128 8.24865C9.36877 7.35579 8.77353 6.47018 8.17828 5.58457L8.17745 5.58334C8.01042 5.33278 7.84338 5.08404 7.67635 4.8353C7.50931 4.58657 7.34227 4.33783 7.17524 4.08727C7.13893 4.03644 7.10261 4.01465 7.03725 4.01465H4.37193C4.30657 4.01465 4.27389 4.01465 4.25755 4.03099C4.24121 4.04733 4.24121 4.08001 4.24121 4.14537V11.7927C4.24121 11.898 4.24121 11.9507 4.26754 11.977C4.29386 12.0033 4.34651 12.0033 4.45181 12.0033H6.46352C6.59424 12.0033 6.60877 11.9961 6.60877 11.8581V7.3699C6.65234 7.38442 6.66687 7.39895 6.67413 7.41347L6.93786 7.80681C7.20328 8.2029 7.46698 8.59642 7.73445 8.98942C8.39533 9.96259 9.04895 10.9358 9.70257 11.9089C9.74614 11.9743 9.78972 12.0033 9.8696 12.0033H12.4332C12.564 12.0033 12.564 11.9961 12.564 11.8653V4.13085C12.564 4.02191 12.564 4.01465 12.4478 4.01465H10.3199C10.2533 4.01465 10.2206 4.01465 10.2046 4.03098C10.1892 4.0467 10.1892 4.07755 10.1892 4.13811V8.5101Z"></path>
<path d="M14.0081 24.894C14.0123 24.9256 14.0166 24.9577 14.0166 24.9877C15.3409 24.9877 16.6773 24.9877 18.0026 24.9986L18.7424 21.7163C18.7827 21.5374 18.8442 21.3677 18.9238 21.2097L18.9969 21.0762C19.3851 20.4231 20.0961 20 20.8886 20H23.0918C22.9982 19.8128 22.9042 19.6256 22.8098 19.4383C22.7578 19.352 22.7578 19.2904 22.8358 19.204C23.5169 18.5418 24.1922 17.874 24.8655 17.2081C25.195 16.8821 25.5245 16.5562 25.8536 16.2321C26.1984 15.8929 26.5431 15.5507 26.8878 15.2085C27.2324 14.8664 27.5773 14.524 27.9219 14.185C27.9495 14.1588 27.9641 14.1264 27.9795 14.0922C27.9859 14.0781 27.9923 14.0637 27.9999 14.0493C27.9479 14.0247 27.8959 14 27.8438 14H23.5383C23.4602 14 23.3822 14.0247 23.3301 14.074L19.805 17.4899C19.7848 17.5091 19.7611 17.5249 19.7322 17.5443C19.7052 17.5624 19.6736 17.5835 19.6359 17.6132C19.6489 17.5146 19.662 17.4529 19.675 17.3913C19.805 16.8797 19.935 16.3651 20.065 15.8504C20.1951 15.3356 20.3253 14.8201 20.4554 14.3083C20.4942 14.1552 20.5137 14.0781 20.4837 14.0393C20.4533 14 20.372 14 20.2083 14H16.6181C16.4881 14 16.397 14.0247 16.371 14.1726C16.3458 14.3318 16.3098 14.4858 16.2734 14.6412C16.2535 14.7267 16.2334 14.8127 16.2149 14.9002C15.8767 16.4416 15.5255 17.983 15.1743 19.5244C14.7841 21.2631 14.3939 23.0143 14.0037 24.7653C13.9959 24.8019 14.0019 24.8477 14.0081 24.894Z"></path>
<path fill-rule="evenodd" clip-rule="evenodd" d="M18.4002 30C18.1438 30 17.9536 29.7622 18.01 29.512L19.7175 21.9361C19.8409 21.3888 20.3271 21 20.8881 21H29.1116C29.6726 21 30.1588 21.3888 30.2822 21.9361L31.9898 29.512C32.0461 29.7622 31.8559 30 31.5995 30H29.3154C29.1581 30 29.0154 29.9078 28.9507 29.7644L27.8108 27.2356C27.7461 27.0922 27.6034 27 27.4461 27H22.5536C22.3963 27 22.2536 27.0922 22.1889 27.2356L21.049 29.7644C20.9843 29.9078 20.8416 30 20.6843 30H18.4002ZM22.1574 22C22.047 22 21.9574 22.0895 21.9574 22.2V23H21.1432C21.0327 23 20.9432 23.0895 20.9432 23.2V23.8C20.9432 23.9105 21.0327 24 21.1432 24H21.9574V24.8C21.9574 24.9105 22.047 25 22.1574 25H22.7717C22.8822 25 22.9717 24.9105 22.9717 24.8V24H23.786C23.8964 24 23.986 23.9105 23.986 23.8V23.2C23.986 23.0895 23.8964 23 23.786 23H22.9717V22.2C22.9717 22.0895 22.8822 22 22.7717 22H22.1574ZM27.3186 24.3571C27.3186 24.7122 27.0266 25 26.6665 25C26.3064 25 26.0145 24.7122 26.0145 24.3571C26.0145 24.0021 26.3064 23.7143 26.6665 23.7143C27.0266 23.7143 27.3186 24.0021 27.3186 24.3571ZM28.4053 25.0001C28.7654 25.0001 29.0573 24.7123 29.0573 24.3572C29.0573 24.0022 28.7654 23.7144 28.4053 23.7144C28.0452 23.7144 27.7533 24.0022 27.7533 24.3572C27.7533 24.7123 28.0452 25.0001 28.4053 25.0001ZM29.0573 22.6429C29.0573 22.9979 28.7654 23.2857 28.4053 23.2857C28.0452 23.2857 27.7533 22.9979 27.7533 22.6429C27.7533 22.2878 28.0452 22 28.4053 22C28.7654 22 29.0573 22.2878 29.0573 22.6429ZM26.6665 23.2857C27.0266 23.2857 27.3186 22.9979 27.3186 22.6429C27.3186 22.2878 27.0266 22 26.6665 22C26.3064 22 26.0145 22.2878 26.0145 22.6429C26.0145 22.9979 26.3064 23.2857 26.6665 23.2857Z"></path>
</svg>